<svg version="1.1" id="Layer_1" xmlns="http://www.w3.org/2000/svg" xmlns:xlink="http://www.w3.org/1999/xlink" x="0px" y="0px"
	 width="100%" viewBox="55 400 1050 400" xml:space="preserve">
<path fill="#B1D89E" opacity="1.000000" stroke="none" 
	d="
M511.808411,721.176147 
	C516.799377,723.173706 521.611206,724.709167 525.954041,727.097595 
	C528.021790,728.234802 530.730225,731.321228 530.386658,732.937500 
	C529.960388,734.942261 526.716675,737.709961 524.612793,737.778503 
	C509.172089,738.281128 493.712006,738.187988 478.258118,738.294800 
	C477.326813,738.301208 476.396271,738.411743 474.786926,738.519165 
	C475.736359,739.905090 476.161041,741.025635 476.970856,741.631470 
	C487.629456,749.605225 498.926300,756.947998 512.780029,755.725647 
	C520.340820,755.058472 527.731873,751.656067 535.033447,749.026245 
	C551.757935,743.002441 568.319885,736.521667 585.105469,730.679199 
	C587.820801,729.734009 591.345642,731.114319 594.496277,731.419678 
	C592.855286,733.864929 591.707764,736.950317 589.495911,738.654968 
	C570.415100,753.361328 551.463440,768.274719 531.774841,782.134277 
	C523.468262,787.981567 513.665039,791.869690 504.212280,795.868896 
	C496.674011,799.058105 489.072723,795.465698 481.750854,793.784851 
	C452.028778,786.961426 423.792328,776.349365 398.404846,759.079346 
	C384.035522,749.304565 370.865173,738.179749 360.891663,723.719177 
	C357.717987,719.117737 358.194611,718.143250 363.352264,716.448486 
	C381.194305,710.585754 399.154968,705.034546 416.770721,698.550354 
	C427.776672,694.499207 437.782867,694.119141 448.977783,698.616699 
	C469.492401,706.858459 490.585114,713.661377 511.808411,721.176147 
z"/>
<path fill="#7BC669" opacity="1.000000" stroke="#7BC669" stroke-width="2"
	d="
M731.987061,581.297546 
	C730.046143,582.358948 728.219421,583.957520 726.146484,584.398376 
	C705.746338,588.736511 692.566895,603.899780 691.459473,624.690735 
	C691.167358,630.173889 691.030640,635.667236 690.924561,641.157837 
	C690.862488,644.368225 690.037231,646.772522 686.238708,646.857422 
	C682.116272,646.949646 681.289978,644.420715 681.313721,640.973755 
	C681.374268,632.183411 681.333862,623.392395 681.333862,615.216797 
	C674.239075,622.107788 667.441406,629.507080 659.775146,635.857849 
	C655.160400,639.680725 649.460510,642.633850 643.774719,644.626709 
	C633.802490,648.121887 623.984924,644.191284 618.017517,635.390503 
	C616.729675,633.491211 615.629211,631.464722 613.874817,628.555725 
	C609.722107,632.665527 606.172119,636.807556 601.993774,640.168579 
	C595.514648,645.380310 593.575012,651.881775 593.757812,659.950378 
	C594.125122,676.164978 593.149170,692.327881 586.545532,707.495300 
	C579.739014,723.128662 567.557922,732.086182 550.811340,734.507629 
	C537.075684,736.493713 529.363281,729.540955 529.399048,715.763550 
	C529.437012,701.130249 535.579041,688.631653 545.152832,678.390137 
	C555.215088,667.626221 566.422729,657.830017 577.844788,648.484741 
	C583.368225,643.965576 586.987549,639.579041 586.411682,632.284363 
	C586.171021,629.236084 586.371643,626.153015 586.371643,621.742371 
	C584.444824,624.188416 583.156677,625.758728 581.938232,627.381409 
	C575.731567,635.647522 567.828796,641.450806 557.639832,643.709656 
	C546.940613,646.081787 539.891113,639.347534 541.808533,628.513916 
	C544.289795,614.495056 550.827271,602.456970 560.623047,592.234192 
	C570.203247,582.236389 581.451294,575.685974 595.889282,576.353088 
	C596.721069,576.391479 597.576355,576.339600 598.379395,576.516724 
	C605.276367,578.037842 606.523621,577.664978 604.572510,585.584290 
	C600.961670,600.240356 599.158142,615.342407 596.642151,630.265503 
	C596.514038,631.024902 596.764221,631.848145 596.943054,633.764038 
	C602.826416,629.750916 608.329529,626.397156 613.283203,622.367920 
	C614.718628,621.200378 614.795349,618.127869 615.124939,615.874573 
	C616.769226,604.632263 619.943787,594.023987 628.158447,585.699341 
	C634.618713,579.152588 642.581726,576.906067 651.540771,579.046875 
	C658.324158,580.667786 660.709229,584.680725 659.349304,591.735413 
	C656.846863,604.716858 648.851440,614.142578 639.162231,622.402710 
	C636.376770,624.777344 633.370789,626.891602 630.545898,629.222107 
	C627.364746,631.846558 627.577454,635.214172 631.498169,636.338623 
	C634.656006,637.244263 638.429993,637.151245 641.673401,636.396240 
	C651.934448,634.007690 659.427368,626.845154 667.328430,620.492798 
	C670.311340,618.094604 672.940979,615.238892 676.015381,612.977478 
	C680.058655,610.003357 680.744934,606.281860 680.066589,601.593018 
	C678.828186,593.032837 677.941528,584.418030 677.106934,575.806702 
	C676.969360,574.387329 677.845398,572.869751 678.252991,571.397522 
	C679.773682,571.845093 681.952209,571.820129 682.681946,572.835938 
	C684.345093,575.150818 685.898132,577.863403 686.415649,580.617310 
	C687.534607,586.572937 687.974854,592.656189 688.819397,599.751526 
	C691.460938,596.154114 693.119690,593.261169 695.369629,590.941589 
	C704.752014,581.268738 716.564697,578.362732 729.598694,579.270935 
	C730.310547,579.320557 730.974487,580.057495 731.833862,580.880188 
	C732.007019,581.285889 731.987061,581.297546 731.987061,581.297546 
M576.134216,660.580811 
	C566.249451,668.242004 556.701538,676.277832 549.682068,686.791687 
	C544.079468,695.183289 539.613159,704.113159 539.994873,714.572693 
	C540.309509,723.194885 545.793518,727.225525 554.076111,725.112000 
	C561.787415,723.144226 567.833862,718.622559 572.582520,712.335083 
	C580.018738,702.489136 583.464722,691.060364 584.996277,679.067688 
	C586.010132,671.128357 586.180786,663.081360 586.728943,655.082520 
	C586.197510,654.858887 585.666138,654.635254 585.134705,654.411621 
	C582.327148,656.322937 579.519531,658.234253 576.134216,660.580811 
M554.078613,615.677185 
	C552.715576,619.420349 551.051514,623.085754 550.060364,626.924927 
	C548.596069,632.596680 551.120300,635.038513 556.657593,633.305054 
	C559.773743,632.329529 562.952271,630.972900 565.560425,629.051758 
	C579.640686,618.680237 587.496338,603.971619 593.406006,588.011169 
	C594.649780,584.652100 592.808594,583.541687 589.878479,584.364014 
	C586.543701,585.299927 583.120483,586.328735 580.132019,588.018188 
	C568.867065,594.386414 559.987854,603.152466 554.078613,615.677185 
M636.221130,613.785095 
	C642.744995,608.613342 647.616638,602.166931 650.123352,594.243225 
	C650.791931,592.130188 650.416992,587.850159 649.349182,587.410278 
	C647.182556,586.517883 643.955688,586.978455 641.654358,587.991150 
	C639.528381,588.926819 637.881409,591.180603 636.299805,593.083557 
	C630.065002,600.585083 626.507324,609.182007 625.227478,620.512329 
	C629.560425,617.874329 632.591064,616.029175 636.221130,613.785095 
z"/>
<path fill="#7AC668" opacity="1.000000" stroke="#7AC668" stroke-width="2"
	d="
M365.067963,664.648315 
	C354.698914,665.611450 351.585022,658.105286 354.307037,649.777405 
	C357.738770,639.278198 364.938568,631.443665 373.033691,624.335388 
	C379.488892,618.667175 386.009033,613.072937 393.106567,606.920288 
	C390.142334,604.961975 387.609924,603.482239 385.289185,601.723328 
	C373.111450,592.493469 360.474335,583.771179 349.074188,573.658020 
	C343.859619,569.032166 340.079834,562.025208 337.481110,555.381592 
	C332.816925,543.457520 337.898834,529.981995 348.691193,522.997803 
	C361.316132,514.827637 375.136536,513.461182 389.486542,517.039368 
	C398.691345,519.334595 404.237122,525.535095 407.047668,535.777100 
	C404.331757,534.568909 402.349579,533.732422 400.405701,532.814819 
	C390.613800,528.192261 380.574036,524.637878 369.584503,527.613037 
	C360.039642,530.197083 353.241211,536.177734 351.087860,545.998169 
	C348.947815,555.757996 351.955048,564.178406 360.163239,570.264160 
	C372.867432,579.683228 385.718445,588.904846 398.390076,598.367004 
	C401.856903,600.955750 405.009766,601.289368 408.997070,599.542847 
	C415.693939,596.609497 422.587341,594.109253 429.473999,591.638550 
	C430.760071,591.177063 432.402435,591.708801 433.880432,591.782349 
	C433.070282,593.158386 432.593201,595.061279 431.392914,595.820007 
	C425.909210,599.286499 420.296936,602.570374 414.580353,605.639526 
	C411.293732,607.404114 411.374908,609.060730 413.389832,611.875244 
	C415.958069,615.462708 418.980560,619.184448 419.981781,623.293152 
	C420.827576,626.764099 420.392120,631.991821 418.251404,634.511414 
	C404.394775,650.820618 387.526337,662.376831 365.067963,664.648315 
M402.231934,614.208374 
	C401.428375,614.348083 400.475800,614.255676 399.843231,614.661743 
	C386.747925,623.067566 374.363922,632.267090 366.721375,646.331970 
	C365.819855,647.991028 365.090973,650.909119 365.921265,652.038635 
	C366.882233,653.346008 369.730225,653.977905 371.632599,653.766357 
	C384.235474,652.365417 395.356445,647.312988 404.563538,638.638672 
	C413.402191,630.311462 412.596344,621.151367 402.231934,614.208374 
z"/>
<path fill="#7CC66A" opacity="1.000000" stroke="#7CC66A" stroke-width="2"
	d="
M732.353882,581.665405 
	C731.987061,581.297546 732.007019,581.285889 731.996460,581.310547 
	C732.441528,579.978943 733.255066,578.629028 733.279053,577.265259 
	C733.330505,574.340149 734.049988,572.319153 737.447876,572.410706 
	C740.647400,572.496948 742.371582,574.076660 742.516907,577.326965 
	C742.829346,584.313232 742.762573,591.346558 743.592468,598.271729 
	C744.539062,606.170166 745.641357,614.162292 747.865417,621.765869 
	C750.439575,630.566284 755.549805,631.675171 761.994507,625.335022 
	C770.957275,616.517578 774.233032,604.969910 776.437866,593.054382 
	C777.059570,589.694763 777.657654,586.904053 782.211365,587.410828 
	C787.180725,587.963684 788.446533,589.325256 788.080872,594.423645 
	C787.258911,605.883667 786.533813,617.350647 785.813904,628.817627 
	C785.735901,630.060059 785.951538,631.320862 786.091492,633.528809 
	C795.903442,627.188477 805.620239,622.601807 816.783936,622.862488 
	C817.060181,623.364990 817.336487,623.867493 817.612732,624.369934 
	C816.010010,625.387146 814.459961,626.501282 812.795532,627.404663 
	C805.649780,631.282837 798.431763,635.029297 791.319275,638.966614 
	C787.643921,641.001221 786.287659,644.176392 786.357300,648.523376 
	C786.618713,664.829773 786.722168,681.144348 786.485352,697.450073 
	C786.406128,702.898621 785.382141,708.378174 784.345764,713.757996 
	C782.635071,722.638672 779.309021,726.211243 772.889587,726.834290 
	C763.917175,727.705200 756.731506,723.639465 753.526489,715.891968 
	C749.288330,705.646973 749.434998,695.025391 751.357056,684.428955 
	C754.333496,668.019226 760.438110,653.133667 773.657043,642.021301 
	C774.736938,641.113525 775.854004,639.657166 776.009277,638.344055 
	C776.706360,632.450989 777.061707,626.517517 776.559875,620.312683 
	C774.098511,623.906006 771.890259,627.712524 769.099243,631.028320 
	C766.669800,633.914551 763.849121,636.640991 760.734924,638.749207 
	C751.760681,644.824402 742.325500,641.837280 739.561157,631.280579 
	C737.219421,622.337524 736.621460,612.929810 735.371216,603.711548 
	C734.392883,596.498352 733.597412,589.260315 732.353882,581.665405 
M777.202148,711.337830 
	C777.514099,710.045349 778.079163,708.756836 778.099792,707.459717 
	C778.377014,689.990967 778.595886,672.521240 778.760986,655.051025 
	C778.772400,653.839050 778.243408,652.621948 777.860779,650.948181 
	C776.916016,651.695862 776.380371,652.043335 775.935730,652.482849 
	C765.473938,662.823975 761.199097,675.977905 758.997742,690.032043 
	C757.831177,697.479858 757.108398,704.966797 760.448303,712.112671 
	C762.394043,716.275452 765.805969,718.165527 770.415222,718.429565 
	C775.078979,718.696655 775.454346,714.905090 777.202148,711.337830 
z"/>
<path fill="#127EB0" opacity="1.000000" stroke="#127EB0" stroke-width="2"
	d="
M824.652771,466.000061 
	C824.652588,486.291595 824.652588,506.083130 824.652588,525.694397 
	C816.372803,528.075989 815.295349,527.299316 815.294067,519.539795 
	C815.291504,504.211456 815.186462,488.881805 815.368835,473.555634 
	C815.413940,469.766754 814.558594,468.317444 810.415283,468.361450 
	C790.424072,468.573883 770.427856,468.586182 750.436951,468.359192 
	C745.911621,468.307831 744.842346,469.838135 744.903748,474.111053 
	C745.131165,489.935944 744.961792,505.766205 745.022583,521.594116 
	C745.034607,524.723328 744.896973,527.206665 740.663818,527.131775 
	C736.422241,527.056763 736.447937,524.473755 736.451172,521.414490 
	C736.489502,485.259583 736.442261,449.104584 736.579590,412.950195 
	C736.586182,411.216888 737.674866,408.525635 738.996277,407.938599 
	C743.071228,406.128174 744.704956,407.497864 744.715820,412.063232 
	C744.749939,426.391815 744.828735,440.721680 744.663025,455.048431 
	C744.618042,458.935852 745.452576,460.699280 749.870361,460.653046 
	C770.028259,460.441956 790.190186,460.478668 810.349121,460.631897 
	C814.192322,460.661102 815.550903,459.617584 815.488647,455.582184 
	C815.262329,440.923767 815.462952,426.259277 815.352600,411.598236 
	C815.327087,408.208160 815.960388,406.377716 819.989685,406.419464 
	C823.856506,406.459503 824.740662,407.974609 824.714355,411.518280 
	C824.580994,429.511383 824.652954,447.505951 824.652771,466.000061 
z"/>
<path fill="#117DB0" opacity="1.000000" stroke="#127EB0" stroke-width="2"
	d="
M659.909668,420.048035 
	C659.920349,416.391968 659.485962,413.132935 660.123230,410.099030 
	C660.456177,408.513733 662.825317,406.100616 664.003540,406.246826 
	C665.709900,406.458588 667.274231,408.554413 668.673035,410.057068 
	C669.096680,410.512207 668.787964,411.663849 668.788025,412.496460 
	C668.790894,448.653564 668.829834,484.810822 668.684265,520.967346 
	C668.676392,522.930054 667.657410,525.756775 666.177856,526.666382 
	C663.010925,528.613281 659.988831,526.480469 659.705872,522.665710 
	C659.589050,521.090454 659.686523,519.499329 659.686523,516.580872 
	C657.479309,518.404114 656.369263,519.255371 655.332153,520.187622 
	C640.335144,533.667542 620.278198,531.669128 608.190247,515.479736 
	C596.274109,499.520508 595.789795,468.297424 607.204590,451.933502 
	C618.421082,435.853790 640.210632,433.657043 654.756531,447.134796 
	C656.027771,448.312714 657.329163,449.457977 659.909241,450.183502 
	C659.909241,440.301819 659.909241,430.420166 659.909668,420.048035 
M623.836731,517.866821 
	C634.257263,523.843811 645.367554,521.168823 652.681335,510.922089 
	C663.106689,496.316040 663.213989,472.338806 652.920166,457.545410 
	C641.992004,441.840363 623.331360,442.600403 614.054199,459.344849 
	C611.748352,463.506531 609.805908,468.166901 609.022217,472.821320 
	C606.129944,489.999634 608.573181,505.737732 623.836731,517.866821 
z"/>
<path fill="#137EB1" opacity="1.000000" stroke="#127EB0" stroke-width="2"
	d="
M417.704224,465.999634 
	C417.704437,447.678711 417.812592,429.856628 417.620483,412.037781 
	C417.577881,408.086243 418.721924,406.883026 422.707855,406.913910 
	C445.024323,407.087036 467.342804,406.990814 489.660614,407.006714 
	C492.108551,407.008453 494.840485,406.450470 494.782776,410.501282 
	C494.722626,414.720306 491.747955,413.688721 489.468872,413.694672 
	C470.149109,413.745117 450.828308,413.819733 431.510040,413.642761 
	C427.639221,413.607300 426.285370,414.597687 426.369293,418.650543 
	C426.620880,430.803558 426.580750,442.966980 426.389954,455.122192 
	C426.329346,458.983490 427.474426,460.352844 431.485687,460.291107 
	C445.472626,460.075958 459.464966,460.194000 473.455170,460.222717 
	C475.839264,460.227600 478.605286,459.466766 478.614136,463.608978 
	C478.622528,467.532440 476.203613,467.235992 473.611542,467.231140 
	C459.621338,467.204834 445.629791,467.320374 431.641632,467.149200 
	C428.048523,467.105225 426.656494,468.000977 426.714142,471.865448 
	C426.922882,485.852600 426.938324,499.847137 426.705383,513.833496 
	C426.639130,517.810791 428.166107,518.481689 431.679230,518.458557 
	C452.330627,518.322510 472.983398,518.412720 493.635590,518.369812 
	C496.528900,518.363831 498.769897,518.338440 498.759003,522.429504 
	C498.749023,526.203308 497.137482,526.794678 493.920380,526.771545 
	C478.265442,526.658936 462.609192,526.720886 446.953430,526.720886 
	C438.792450,526.720947 430.626709,526.557312 422.472626,526.794067 
	C418.748199,526.902283 417.596283,525.692444 417.629333,521.960266 
	C417.793060,503.474640 417.703918,484.986755 417.704224,465.999634 
z"/>
<path fill="#0F7CAF" opacity="1.000000" stroke="#127EB0" stroke-width="2"
	d="
M82.003387,526.592712 
	C77.006042,526.592407 72.495140,526.380127 68.014816,526.659058 
	C64.371696,526.885864 63.468807,525.349670 63.494461,522.011841 
	C63.655781,501.025208 63.672119,480.037415 63.746422,459.050079 
	C63.804211,442.726379 63.869621,426.402679 63.960075,410.079132 
	C63.965389,409.119476 64.224869,408.161194 64.422203,406.821014 
	C71.181679,406.821014 77.804733,406.746094 84.425568,406.835693 
	C101.242516,407.063263 118.058495,407.363586 134.874786,407.638855 
	C135.873657,407.655182 137.043121,407.391479 137.829865,407.817871 
	C138.976944,408.439484 139.848557,409.569366 140.837585,410.482605 
	C139.778336,411.517670 138.787628,413.349182 137.647766,413.447266 
	C133.180511,413.831635 128.666183,413.669708 124.169334,413.709595 
	C108.514626,413.848511 92.859375,414.109467 77.205566,414.041412 
	C73.176102,414.023926 72.059654,415.387390 72.144699,419.271179 
	C72.399887,430.926117 72.461845,442.591064 72.273308,454.246857 
	C72.204117,458.524658 73.468452,460.103943 77.931496,460.074493 
	C91.584198,459.984344 105.240059,460.285187 118.893646,460.500244 
	C121.217987,460.536865 124.563103,459.642853 124.389542,463.580688 
	C124.231689,467.161987 121.114441,466.617798 118.651733,466.677460 
	C105.167572,467.004028 91.684647,467.469971 78.198730,467.583466 
	C73.968338,467.619049 72.339088,468.816559 72.445778,473.305054 
	C72.762344,486.623718 72.778328,499.954102 72.626274,513.276611 
	C72.580376,517.298340 74.047569,518.383423 77.874573,518.361694 
	C97.196114,518.251709 116.518967,518.369568 135.841354,518.407593 
	C137.173996,518.410217 138.506912,518.432312 139.839218,518.413025 
	C142.830307,518.369629 145.113770,519.828491 144.508850,522.755859 
	C144.186752,524.314575 141.650970,526.349731 139.953003,526.515320 
	C134.837265,527.014160 129.642395,526.714539 124.478439,526.703369 
	C110.486633,526.672974 96.494850,526.630615 82.003387,526.592712 
z"/>
<path fill="#0D7BAF" opacity="1.000000" stroke="#127EB0" stroke-width="2"
	d="
M1027.904053,511.128113 
	C1019.423706,493.064941 1018.777222,474.950928 1026.743408,457.145599 
	C1035.821899,436.854370 1060.208862,432.227325 1076.825317,447.040070 
	C1078.293823,448.349152 1079.703003,449.724884 1081.797363,451.685272 
	C1081.982178,449.609314 1082.206787,448.237701 1082.210205,446.865570 
	C1082.239014,435.366028 1082.252197,423.866302 1082.210938,412.366852 
	C1082.199585,409.189423 1082.199829,406.028931 1086.537109,406.024933 
	C1090.741699,406.021088 1091.048218,409.005554 1091.047485,412.276733 
	C1091.039185,448.608551 1091.063232,484.940399 1091.115112,521.272217 
	C1091.119507,524.339966 1090.998779,527.028320 1086.860229,527.069519 
	C1082.646973,527.111511 1081.895996,524.616577 1082.105103,521.161926 
	C1082.171631,520.063599 1081.946533,518.947632 1081.750977,516.582947 
	C1071.571777,526.541748 1060.572021,531.881897 1047.039551,527.561584 
	C1038.577759,524.860046 1032.352783,519.235107 1027.904053,511.128113 
M1030.160034,479.859619 
	C1029.789551,490.771545 1031.815308,501.103119 1038.232178,510.145294 
	C1049.105591,525.467529 1067.037720,524.908752 1076.443604,508.649841 
	C1085.765503,492.536224 1085.676392,475.795410 1076.478760,459.737579 
	C1066.025269,441.487305 1046.798462,441.424438 1036.290283,459.658478 
	C1033.001953,465.364471 1032.181885,472.493103 1030.160034,479.859619 
z"/>
<path fill="#0E7CAF" opacity="1.000000" stroke="#127EB0" stroke-width="2"
	d="
M849.939087,520.048706 
	C836.728271,502.044189 846.717468,479.561157 869.653564,474.818573 
	C879.466858,472.789429 889.183899,473.348328 898.862305,475.672760 
	C900.424194,476.047882 902.007324,476.334503 903.999451,476.749237 
	C905.195801,467.113861 904.898926,458.515533 897.109741,452.092438 
	C889.098511,445.486359 879.993347,444.830780 870.858704,448.854401 
	C866.425720,450.807068 862.573059,454.263550 858.787170,457.432800 
	C856.287598,459.525208 854.429199,460.793060 851.638855,457.927795 
	C848.889709,455.104828 849.948669,453.099976 852.230591,450.745483 
	C863.892517,438.712585 882.157959,434.907349 897.334351,441.707886 
	C907.527649,446.275513 913.114990,454.176849 913.230469,465.534149 
	C913.387939,481.019409 913.494202,496.505737 913.501526,511.991669 
	C913.503113,515.410278 913.750122,518.149109 917.823669,519.297791 
	C918.929565,519.609619 920.211609,522.231506 919.971558,523.525818 
	C919.747986,524.731018 917.715942,526.225586 916.288330,526.469360 
	C911.354919,527.311584 907.469788,525.550720 905.305176,520.749390 
	C904.838684,519.714539 904.248047,518.735596 903.715271,517.732422 
	C898.855286,520.281921 894.363464,523.114258 889.519043,525.075928 
	C880.685486,528.652893 871.366943,529.994873 862.150330,527.087830 
	C857.872681,525.738525 854.151001,522.626892 849.939087,520.048706 
M855.264648,495.176086 
	C850.195984,509.156281 857.669617,520.064087 872.604797,520.278748 
	C883.314758,520.432739 892.530640,516.416504 899.939880,508.885193 
	C902.184753,506.603363 903.793884,503.001678 904.267273,499.793945 
	C906.132568,487.154175 904.287598,484.399841 891.729858,482.408478 
	C877.800110,480.199554 864.639099,481.426056 855.264648,495.176086 
z"/>
<path fill="#0E7CAF" opacity="1.000000" stroke="#127EB0" stroke-width="2"
	d="
M153.681274,509.435669 
	C150.727966,494.645416 158.056931,481.754639 172.162247,476.671448 
	C183.661758,472.527405 195.353226,472.791168 207.103500,475.551239 
	C208.821487,475.954742 210.561966,476.262543 212.784561,476.714874 
	C213.919708,467.701050 213.841858,459.486328 207.045654,453.143097 
	C199.194351,445.815094 189.764801,444.473694 180.161026,448.636383 
	C175.284851,450.749908 171.123611,454.644684 166.883774,458.039642 
	C164.719482,459.772614 163.103302,460.480347 160.901581,458.294586 
	C158.911758,456.319244 157.848373,454.568939 159.912704,451.866211 
	C171.030655,437.310150 197.359283,433.881134 212.036575,445.182037 
	C219.355438,450.817230 222.135345,458.513214 222.149445,467.480835 
	C222.172195,481.969330 222.260025,496.457764 222.256516,510.946228 
	C222.255615,514.702332 221.935425,518.340515 226.952377,519.519836 
	C227.880737,519.738037 228.948425,522.274109 228.742065,523.543701 
	C228.556915,524.682861 226.838943,526.158203 225.568604,526.434631 
	C219.951172,527.656677 217.414444,525.882141 212.012589,517.359192 
	C210.555496,518.330811 209.120972,519.322266 207.652649,520.260864 
	C196.033615,527.688416 183.555435,530.587036 170.024551,526.929016 
	C161.246918,524.556030 155.720032,518.825867 153.681274,509.435669 
M191.160385,519.081787 
	C196.443695,516.326599 201.917038,513.874451 206.949539,510.719208 
	C210.896194,508.244781 213.088516,504.266327 213.250275,499.381958 
	C213.772507,483.612427 213.342041,485.264191 200.054230,482.446838 
	C189.202637,480.146027 178.377991,481.164215 169.313202,488.747162 
	C163.826172,493.337250 161.318069,499.314362 162.514481,506.493317 
	C163.701508,513.616028 168.683929,517.717590 175.127335,519.104187 
	C179.979355,520.148376 185.248901,519.252380 191.160385,519.081787 
z"/>
<path fill="#117DB0" opacity="1.000000" stroke="#127EB0" stroke-width="2"
	d="
M558.416504,447.978912 
	C543.257263,442.968323 527.093628,452.151733 525.613892,467.569489 
	C524.233948,481.947266 524.850769,496.517731 524.618652,511.003876 
	C524.557190,514.836243 524.555969,518.671204 524.621033,522.503418 
	C524.674988,525.673950 523.120728,527.021729 520.048462,527.075317 
	C516.878174,527.130615 515.583618,525.702026 515.590088,522.527466 
	C515.642578,496.694305 515.635498,470.860931 515.592590,445.027710 
	C515.587952,442.236542 516.451782,440.560547 519.516235,440.484863 
	C522.396667,440.413727 524.473450,441.118774 524.503174,444.529083 
	C524.513000,445.658905 524.731750,446.786926 524.966553,448.937653 
	C527.180054,447.261658 528.818726,446.003662 530.475098,444.769379 
	C543.485596,435.074341 562.916870,436.030731 572.628540,447.975311 
	C576.602539,452.862976 579.812744,459.752136 580.190735,465.925446 
	C581.349915,484.856506 580.954346,503.881989 581.200134,522.870300 
	C581.245544,526.375488 579.177429,526.862488 576.298950,526.868896 
	C572.841858,526.876587 572.168396,524.990784 572.179626,522.060486 
	C572.237061,507.060760 572.258606,492.060364 572.167725,477.060944 
	C572.144592,473.240326 571.936340,469.379700 571.340088,465.612305 
	C570.097168,457.759094 566.300720,451.571655 558.416504,447.978912 
z"/>
<path fill="#0E7CAF" opacity="1.000000" stroke="#127EB0" stroke-width="2"
	d="
M958.808228,450.526245 
	C950.830750,455.895874 947.218445,463.285553 947.118835,472.340363 
	C946.939270,488.656006 947.088440,504.976105 946.786560,521.288513 
	C946.750427,523.243103 945.191711,526.250977 943.595703,526.877258 
	C939.913696,528.322083 937.905762,526.114502 937.901306,521.372803 
	C937.877380,496.228577 937.895081,471.084351 937.881897,445.940125 
	C937.880432,443.137726 937.851807,440.528320 941.783875,440.348907 
	C945.845764,440.163574 947.106812,442.206970 946.841064,445.859528 
	C946.794556,446.498840 946.996826,447.156281 947.207214,448.717987 
	C948.885254,447.583832 950.182312,446.791138 951.388855,445.878723 
	C961.918274,437.915802 973.623535,435.712708 985.726746,440.816223 
	C997.755188,445.888153 1002.695923,456.498535 1003.050171,468.942749 
	C1003.556885,486.742584 1003.301147,504.563354 1003.480347,522.374084 
	C1003.515381,525.856812 1002.026733,527.109802 998.685913,527.091309 
	C995.267944,527.072327 994.556091,525.240112 994.552246,522.294373 
	C994.530334,505.312317 994.415100,488.330383 994.328613,471.348419 
	C994.326050,470.849243 994.304321,470.349274 994.270081,469.851166 
	C992.861938,449.399750 977.257324,440.729431 958.808228,450.526245 
z"/>
<path fill="#107CB0" opacity="1.000000" stroke="#127EB0" stroke-width="2"
	d="
M258.395874,470.807526 
	C265.140564,473.718079 271.619873,476.314758 278.013062,479.108429 
	C282.280670,480.973267 286.561646,482.880920 290.596802,485.188782 
	C298.572998,489.750671 303.174072,496.551819 302.681427,506.018372 
	C302.167603,515.891663 296.664581,522.285583 287.834656,526.120483 
	C273.171295,532.488831 255.027039,528.530212 245.308472,516.898254 
	C243.048615,514.193481 241.635132,511.439636 244.959015,508.705750 
	C248.208664,506.032898 250.275711,508.290741 252.411926,510.742493 
	C261.551910,521.232361 274.665344,523.896912 285.662262,517.633545 
	C294.434509,512.637268 295.906372,501.495636 288.174194,495.007050 
	C284.703186,492.094238 280.233795,490.282562 276.052032,488.324463 
	C268.389099,484.736328 260.353210,481.871155 252.939301,477.845459 
	C245.519714,473.816681 242.635895,466.699036 243.300125,458.388519 
	C243.998642,449.649170 249.124252,444.253601 257.038971,441.021881 
	C271.020111,435.313141 287.555389,438.540436 298.124756,449.449188 
	C299.293121,450.655090 300.421967,453.864319 299.850372,454.441101 
	C297.700378,456.610626 295.072662,458.778595 291.693298,455.671997 
	C289.145172,453.329529 286.384277,451.107025 283.404114,449.369720 
	C277.503082,445.929657 271.019958,445.665985 264.505737,447.169678 
	C259.299835,448.371399 254.522400,450.527710 253.056534,456.328735 
	C251.605560,462.070801 253.679932,466.793365 258.395874,470.807526 
z"/>
<path fill="#7CC66A" opacity="1.000000" stroke="#7CC66A" stroke-width="2"
	d="
M454.958313,645.081848 
	C447.397552,649.900452 441.766479,647.885925 439.604004,639.606445 
	C438.689850,636.106506 438.307129,632.390991 438.231140,628.761963 
	C437.844269,610.292236 437.638733,591.818787 437.364594,573.346680 
	C437.329315,570.968323 437.062592,568.464050 440.501526,568.225830 
	C443.547546,568.014771 446.431396,568.356934 446.902771,572.095947 
	C447.337280,575.542419 447.609497,579.054565 447.474854,582.519165 
	C447.022583,594.155640 446.118134,605.779114 445.888336,617.417419 
	C445.794647,622.164001 446.854584,626.958984 447.683044,631.680542 
	C447.899780,632.915710 449.083160,634.715027 450.061127,634.885315 
	C451.131500,635.071716 452.839844,633.953979 453.649017,632.918945 
	C462.859802,621.137634 468.767151,607.920349 470.562347,592.981140 
	C470.760681,591.330383 471.051758,589.682861 471.122284,588.026306 
	C471.333038,583.077759 474.774445,583.103760 478.240326,583.474243 
	C481.912964,583.866760 481.363281,586.430237 481.012756,589.091797 
	C479.407806,601.278076 477.153381,613.456604 479.708252,625.793396 
	C479.943237,626.928162 480.191742,628.067932 480.548798,629.168152 
	C482.509430,635.209656 484.361633,635.894287 490.062042,632.674133 
	C495.080963,629.838867 500.078949,626.966614 505.086151,624.110657 
	C505.426758,624.389587 505.767365,624.668457 506.107971,624.947327 
	C505.551636,626.334839 505.269226,627.931824 504.394501,629.075928 
	C498.751984,636.456543 491.319885,640.773743 481.984406,641.533508 
	C476.818481,641.953918 474.199646,639.840698 473.469757,634.710083 
	C472.872955,630.515076 472.419220,626.299744 471.835480,621.552063 
	C465.987030,629.748596 460.606171,637.289795 454.958313,645.081848 
z"/>
<path fill="#0D7BAF" opacity="1.000000" stroke="#0D7BAF" stroke-width="2"
	d="
M332.187134,406.870239 
	C333.096100,408.817047 334.096039,410.611969 334.137695,412.428802 
	C334.317017,420.248352 334.345612,428.077484 334.155212,435.896484 
	C334.071838,439.321045 335.222961,440.757477 338.702698,440.632782 
	C342.690674,440.489868 346.690613,440.637482 350.684326,440.714203 
	C353.405334,440.766449 356.216217,441.569031 355.582092,444.759460 
	C355.286987,446.244171 352.587616,448.019257 350.779266,448.279144 
	C346.692719,448.866425 342.480896,448.697357 338.323212,448.633057 
	C335.653961,448.591797 334.430573,449.380066 334.463348,452.321442 
	C334.678619,471.627411 334.627258,490.937683 335.034393,510.238708 
	C335.087036,512.733948 336.924194,515.455383 338.564392,517.587646 
	C340.703949,520.369080 339.540100,522.129822 337.598175,524.018127 
	C335.549530,526.010193 333.580353,526.008728 331.549225,523.905457 
	C326.686401,518.869934 325.448395,512.632874 325.467499,505.961884 
	C325.515106,489.317291 325.580383,472.672760 325.620361,456.028137 
	C325.638031,448.683502 325.615631,448.788391 318.121429,448.620697 
	C314.910278,448.548859 310.166534,450.082092 310.056915,444.672485 
	C309.943390,439.071045 314.781616,440.734070 317.942261,440.660278 
	C325.619385,440.481110 325.622955,440.598328 325.624176,433.146484 
	C325.625305,426.321625 325.857452,419.486053 325.545380,412.675507 
	C325.324402,407.853271 326.867462,405.679443 332.187134,406.870239 
z"/>
<path fill="#7BC669" opacity="1.000000" stroke="#7BC669" stroke-width="2"
	d="
M556.577637,579.833679 
	C556.448608,580.910034 556.319580,581.986450 555.516296,583.072510 
	C553.903931,583.431396 552.965820,583.780701 552.027710,584.130005 
	C551.552612,584.309998 551.077576,584.489990 549.954468,584.450134 
	C545.206238,586.015625 541.106018,587.800964 537.005737,589.586182 
	C534.514038,591.625366 532.022339,593.664551 528.910583,595.892822 
	C527.861816,596.725952 527.433167,597.370056 527.004517,598.014160 
	C526.026672,599.517334 525.048828,601.020508 523.533447,602.847656 
	C522.702026,603.889099 522.408081,604.606628 522.114136,605.324097 
	C521.270081,607.678284 520.425964,610.032471 519.125122,612.832764 
	C518.376221,614.824829 518.084106,616.370728 517.792053,617.916626 
	C517.712280,618.712463 517.632446,619.508240 517.089844,620.842407 
	C516.646790,624.542053 516.666565,627.703369 516.686340,630.864624 
	C516.728088,634.466492 517.248169,638.154846 516.619141,641.635498 
	C516.281128,643.505920 513.970581,645.019958 511.936829,646.453491 
	C510.720062,646.192505 510.116577,646.172791 509.513092,646.153076 
	C508.886169,644.627563 507.765533,643.118713 507.713287,641.573730 
	C507.399017,632.279968 507.329926,622.977905 507.452148,613.029053 
	C507.462219,610.932129 507.198883,609.484741 506.935577,608.037415 
	C506.701874,606.916260 506.468170,605.795166 506.506165,603.999756 
	C506.502594,602.210327 506.227325,601.095154 505.952087,599.979980 
	C505.717773,598.502075 505.483429,597.024231 505.513489,594.935913 
	C505.502563,593.210266 505.227325,592.095154 504.952087,590.979980 
	C504.717407,589.502197 504.482697,588.024414 504.516510,585.915405 
	C504.507568,583.849365 504.230103,582.414551 503.952637,580.979675 
	C503.717712,579.502686 503.482788,578.025635 503.521301,575.905396 
	C503.811646,574.338684 503.828491,573.415161 503.845337,572.491699 
	C509.092682,570.951843 510.547455,574.551331 511.593079,578.924438 
	C511.626984,580.303101 511.897858,581.141357 512.168762,581.979614 
	C512.386963,583.084290 512.605103,584.188965 512.549194,585.960693 
	C512.604797,588.078613 512.934570,589.529480 513.264343,590.980408 
	C513.435791,591.770020 513.607239,592.559631 513.507507,594.026917 
	C513.500732,596.445984 513.765076,598.187317 514.029419,599.928711 
	C514.681213,599.729126 515.333008,599.529541 515.984741,599.329956 
	C516.339905,598.724915 516.695068,598.119934 517.563354,597.165649 
	C518.355652,596.131470 518.634827,595.446594 518.913940,594.761719 
	C518.913940,594.761719 519.007874,594.318909 519.461060,594.090576 
	C520.259094,593.193787 520.603943,592.525269 520.948853,591.856812 
	C522.986572,589.913330 525.024292,587.969849 527.772339,585.966370 
	C532.645203,584.219238 536.807739,582.532227 540.970215,580.845215 
	C541.443909,580.666260 541.917542,580.487305 542.992249,580.519409 
	C544.719360,580.441467 545.845520,580.152527 546.971619,579.863586 
	C548.737671,579.631226 550.503784,579.398926 552.995361,579.469238 
	C554.673096,579.792419 555.625366,579.813049 556.577637,579.833679 
z"/>
<path fill="#7CC66A" opacity="1.000000" stroke="none" 
	d="
M540.616577,580.730835 
	C536.807739,582.532227 532.645203,584.219238 528.092651,585.900757 
	C531.889343,584.135620 536.076172,582.376038 540.616577,580.730835 
z"/>
<path fill="#7CC66A" opacity="1.000000" stroke="none" 
	d="
M537.354370,589.567993 
	C541.106018,587.800964 545.206238,586.015625 549.569946,584.426575 
	C545.789856,586.265137 541.746460,587.907471 537.354370,589.567993 
z"/>
<path fill="#7CC66A" opacity="1.000000" stroke="none" 
	d="
M516.913635,630.554199 
	C516.666565,627.703369 516.646790,624.542053 516.920105,621.206299 
	C517.189087,624.102478 517.164978,627.173096 516.913635,630.554199 
z"/>
<path fill="#7CC66A" opacity="1.000000" stroke="none" 
	d="
M515.647705,599.131287 
	C515.333008,599.529541 514.681213,599.729126 514.029419,599.928711 
	C513.765076,598.187317 513.500732,596.445984 513.441772,594.431641 
	C514.201721,595.750000 514.756165,597.341309 515.647705,599.131287 
z"/>
<path fill="#7CC66A" opacity="1.000000" stroke="none" 
	d="
M503.799805,581.268555 
	C504.230103,582.414551 504.507568,583.849365 504.593079,585.549927 
	C504.149719,584.396179 503.898315,582.976868 503.799805,581.268555 
z"/>
<path fill="#7CC66A" opacity="1.000000" stroke="none" 
	d="
M513.386108,590.627563 
	C512.934570,589.529480 512.604797,588.078613 512.478394,586.385132 
	C512.957092,587.519958 513.232544,588.897278 513.386108,590.627563 
z"/>
<path fill="#7CC66A" opacity="1.000000" stroke="none" 
	d="
M506.792450,608.381348 
	C507.198883,609.484741 507.462219,610.932129 507.527008,612.615601 
	C507.102081,611.476257 506.875702,610.100708 506.792450,608.381348 
z"/>
<path fill="#7CC66A" opacity="1.000000" stroke="none" 
	d="
M518.032104,617.691772 
	C518.084106,616.370728 518.376221,614.824829 518.911316,613.152710 
	C518.860229,614.506653 518.566162,615.986816 518.032104,617.691772 
z"/>
<path fill="#7CC66A" opacity="1.000000" stroke="none" 
	d="
M505.802063,600.242554 
	C506.227325,601.095154 506.502594,602.210327 506.591797,603.570740 
	C506.154510,602.712341 505.903259,601.608765 505.802063,600.242554 
z"/>
<path fill="#7CC66A" opacity="1.000000" stroke="none" 
	d="
M546.649170,579.728638 
	C545.845520,580.152527 544.719360,580.441467 543.375732,580.544312 
	C544.214294,580.103394 545.270508,579.848511 546.649170,579.728638 
z"/>
<path fill="#7CC66A" opacity="1.000000" stroke="none" 
	d="
M504.802032,591.242554 
	C505.227325,592.095154 505.502563,593.210266 505.591797,594.570679 
	C505.154510,593.712341 504.903259,592.608765 504.802032,591.242554 
z"/>
<path fill="#7CC66A" opacity="1.000000" stroke="none" 
	d="
M512.309387,581.689575 
	C511.897858,581.141357 511.626984,580.303101 511.551086,579.286499 
	C511.980743,579.871948 512.215393,580.635742 512.309387,581.689575 
z"/>
<path fill="#7CC66A" opacity="1.000000" stroke="none" 
	d="
M556.400391,579.589172 
	C555.625366,579.813049 554.673096,579.792419 553.438965,579.561157 
	C554.179138,579.348633 555.201111,579.346680 556.400391,579.589172 
z"/>
<path fill="#7CC66A" opacity="1.000000" stroke="none" 
	d="
M552.333496,584.250061 
	C552.965820,583.780701 553.903931,583.431396 555.188538,583.118164 
	C554.569763,583.559509 553.604553,583.964844 552.333496,584.250061 
z"/>
<path fill="#7CC66A" opacity="1.000000" stroke="none" 
	d="
M503.596802,572.661621 
	C503.828491,573.415161 503.811646,574.338684 503.598389,575.540161 
	C503.384094,574.822571 503.366211,573.827087 503.596802,572.661621 
z"/>
<path fill="#7CC66A" opacity="1.000000" stroke="none" 
	d="
M522.370789,605.175903 
	C522.408081,604.606628 522.702026,603.889099 523.294434,603.088989 
	C523.271057,603.680115 522.949280,604.353882 522.370789,605.175903 
z"/>
<path fill="#7CC66A" opacity="1.000000" stroke="none" 
	d="
M527.287231,597.923218 
	C527.433167,597.370056 527.861816,596.725952 528.603333,596.028076 
	C528.467346,596.593628 528.018616,597.212891 527.287231,597.923218 
z"/>
<path fill="#7CC66A" opacity="1.000000" stroke="none" 
	d="
M518.661682,594.897827 
	C518.634827,595.446594 518.355652,596.131470 517.797729,596.904419 
	C517.815796,596.339661 518.112549,595.686829 518.661682,594.897827 
z"/>
<path fill="#7CC66A" opacity="1.000000" stroke="none" 
	d="
M520.682861,591.970703 
	C520.603943,592.525269 520.259094,593.193787 519.618652,593.928223 
	C519.687744,593.357666 520.052307,592.721130 520.682861,591.970703 
z"/>
<path fill="#7CC66A" opacity="1.000000" stroke="none" 
	d="
M509.662720,646.363403 
	C510.116577,646.172791 510.720062,646.192505 511.565857,646.388184 
	C511.142914,646.567261 510.477631,646.570496 509.662720,646.363403 
z"/>
</svg>