<?xml version="1.0" encoding="UTF-8" standalone="no"?>
<!-- Created with Inkscape (http://www.inkscape.org/) -->

<svg
   version="1.1"
   id="svg1"
   width="284.57333"
   height="221.81332"
   viewBox="0 0 284.57333 221.81332"
   sodipodi:docname="QC_PL_WhiteBG_4C.svg"
   inkscape:version="1.4.2 (ebf0e940, 2025-05-08)"
   xmlns:inkscape="http://www.inkscape.org/namespaces/inkscape"
   xmlns:sodipodi="http://sodipodi.sourceforge.net/DTD/sodipodi-0.dtd"
   xmlns="http://www.w3.org/2000/svg"
   xmlns:svg="http://www.w3.org/2000/svg">
  <defs
     id="defs1" />
  <sodipodi:namedview
     id="namedview1"
     pagecolor="#ffffff"
     bordercolor="#000000"
     borderopacity="0.25"
     inkscape:showpageshadow="2"
     inkscape:pageopacity="0.0"
     inkscape:pagecheckerboard="0"
     inkscape:deskcolor="#d1d1d1"
     inkscape:zoom="1.0996955"
     inkscape:cx="110.48513"
     inkscape:cy="160.49897"
     inkscape:window-width="1152"
     inkscape:window-height="704"
     inkscape:window-x="0"
     inkscape:window-y="38"
     inkscape:window-maximized="0"
     inkscape:current-layer="group-R5">
    <inkscape:page
       x="0"
       y="0"
       inkscape:label="1"
       id="page1"
       width="284.57333"
       height="221.81332"
       margin="0"
       bleed="0" />
  </sodipodi:namedview>
  <g
     id="g1"
     inkscape:groupmode="layer"
     inkscape:label="1">
    <g
       id="group-R5">
      <path
         id="path2"
         d="m 1058.23,917.828 c -0.1,0 -0.27,0 -0.38,0 -0.62,0.02 -1.26,0.02 -1.88,0.039 -5.46,0.137 -15.06,0.488 -16.66,0.567 C 954.828,889.098 850.023,841.039 784.281,807.133 l 37.5,-37.5 c 35.723,17.883 96.133,47.695 143.762,69.308 33.777,28.914 83.637,71.141 92.687,78.887"
         style="fill:#e91638;fill-opacity:1;fill-rule:nonzero;stroke:none"
         transform="matrix(0.13333333,0,0,-0.13333333,0,221.81333)" />
      <path
         id="path3"
         d="M 545.238,11.1914 C 540.461,8.42969 535.566,6.23828 530.563,4.58984 525.559,2.94141 520.512,1.75 515.426,1.05078 510.336,0.351563 505.066,0 499.617,0 c -10.062,0 -19.086,1.53125 -27.062,4.58984 -7.981,3.05079 -14.903,7.55856 -20.77,13.51956 -5.867,5.9687 -10.262,12.9414 -13.176,20.9219 -2.921,7.9882 -4.379,16.75 -4.379,26.289 0,10.9492 1.723,20.5391 5.168,28.7578 3.45,8.2309 8.274,15.0699 14.473,20.5119 6.195,5.441 13.262,9.461 21.184,12.07 7.925,2.59 16.277,3.891 25.062,3.891 13.125,0 27.996,-3.211 44.625,-9.641 V 87.1484 c -5.726,3.9219 -11.387,7.1719 -16.972,9.7813 -5.59,2.6016 -12.165,3.8983 -19.727,3.8983 -6.73,0 -13.016,-1.4686 -18.848,-4.4061 -5.84,-2.9414 -10.543,-7.1328 -14.097,-12.5703 -3.559,-5.4532 -5.336,-11.8008 -5.336,-19.0821 0,-6.4179 1.551,-12.3086 4.668,-17.6601 3.113,-5.3594 7.433,-9.5977 12.968,-12.7578 5.532,-3.1407 11.778,-4.7305 18.723,-4.7305 5.617,0 10.93,0.7578 15.934,2.2578 5.008,1.4922 9.215,3.1602 12.636,5 3.418,1.8399 6.934,4 10.547,6.5117 V 11.1914"
         style="fill:#e91638;fill-opacity:1;fill-rule:nonzero;stroke:none"
         transform="matrix(0.13333333,0,0,-0.13333333,0,221.81333)" />
      <path
         id="path4"
         d="m 739.824,65.3203 c 0,4.7695 -0.64,9.1289 -1.914,13.0703 -1.285,3.9492 -3.215,7.3789 -5.801,10.2813 -2.582,2.8984 -5.742,5.1562 -9.464,6.7773 -3.723,1.6289 -8.036,2.4414 -12.926,2.4414 -9.344,0 -16.684,-3 -22.024,-8.9922 -5.336,-5.9882 -8.004,-13.8593 -8.004,-23.5781 0,-9.7305 2.68,-17.6015 8.047,-23.6289 5.367,-6.0195 12.692,-9.043 21.981,-9.043 6.39,0 11.844,1.4024 16.344,4.1797 4.503,2.7813 7.925,6.6328 10.261,11.5625 2.332,4.9297 3.5,10.5703 3.5,16.9297 z m 35.531,0 c 0,-11.8711 -2.488,-22.789 -7.464,-32.7617 C 762.914,22.5898 755.508,14.6719 745.664,8.80078 735.824,2.94141 723.84,0 709.719,0 695.426,0 683.328,3.05078 673.438,9.17188 663.535,15.2891 656.184,23.3281 651.371,33.3008 c -4.808,9.9687 -7.211,20.6406 -7.211,32.0195 0,11.4297 2.387,22.1289 7.172,32.0703 4.781,9.9294 12.137,17.9494 22.063,24.0314 9.925,6.09 22.031,9.129 36.324,9.129 10.672,0 20.191,-1.75 28.562,-5.231 8.367,-3.492 15.25,-8.211 20.645,-14.172 5.394,-5.968 9.48,-12.9097 12.262,-20.8277 2.777,-7.9219 4.167,-16.25 4.167,-25"
         style="fill:#e91638;fill-opacity:1;fill-rule:nonzero;stroke:none"
         transform="matrix(0.13333333,0,0,-0.13333333,0,221.81333)" />
      <path
         id="path5"
         d="M 970.277,1.64844 H 882.449 V 128.801 h 34.864 V 32.1094 h 52.964 V 1.64844"
         style="fill:#e91638;fill-opacity:1;fill-rule:nonzero;stroke:none"
         transform="matrix(0.13333333,0,0,-0.13333333,0,221.81333)" />
      <path
         id="path6"
         d="m 1163.78,1.64844 h -87.82 V 128.801 h 34.86 V 32.1094 h 52.96 V 1.64844"
         style="fill:#e91638;fill-opacity:1;fill-rule:nonzero;stroke:none"
         transform="matrix(0.13333333,0,0,-0.13333333,0,221.81333)" />
      <path
         id="path7"
         d="m 1356.62,1.64844 h -87.16 V 128.801 h 85.74 v -25.492 h -50.88 V 80 h 48.55 V 54.3984 h -48.55 V 27.2383 h 52.3 V 1.64844"
         style="fill:#e91638;fill-opacity:1;fill-rule:nonzero;stroke:none"
         transform="matrix(0.13333333,0,0,-0.13333333,0,221.81333)" />
      <path
         id="path8"
         d="m 1574.39,10.6406 c -2.5,-1.03904 -4.64,-1.90232 -6.42,-2.57029 -1.78,-0.67187 -3.48,-1.28906 -5.12,-1.83203 -1.64,-0.55859 -4.03,-1.25781 -7.13,-2.10937 C 1550.42,2.78125 1545.16,1.75 1539.91,1.05078 1534.64,0.351563 1529.11,0 1523.27,0 c -11.73,0 -22.58,2.35156 -32.53,7.05859 -9.96,4.71091 -17.92,12.01951 -23.9,21.92971 -5.98,9.9023 -8.96,22.082 -8.96,36.5117 0,9.3008 1.54,18.4297 4.62,27.3906 3.09,8.9614 7.81,16.1294 14.14,21.5074 5.23,4.461 10.52,7.883 15.89,10.231 5.37,2.359 10.61,3.93 15.73,4.73 5.11,0.789 10.76,1.192 16.93,1.192 10.18,0 18.56,-0.84 25.18,-2.531 6.62,-1.68 13.88,-3.891 21.77,-6.649 V 91.2813 c -5.23,3.3593 -10.76,6.1796 -16.6,8.4375 -5.84,2.2692 -13.12,3.4022 -21.85,3.4022 -10.06,0 -18.11,-2.101 -24.14,-6.2929 -6.04,-4.1875 -10.24,-9.1875 -12.6,-15 -2.37,-5.8086 -3.54,-11.4297 -3.54,-16.8789 0,-6.4179 1.36,-12.3398 4.09,-17.75 2.71,-5.4179 6.83,-9.7578 12.34,-13.0273 5.51,-3.2813 12.15,-4.9102 19.93,-4.9102 4.44,0 9.17,0.6485 14.18,1.9297 v 14.957 h -15.67 v 25.5899 h 46.11 V 10.6406"
         style="fill:#e91638;fill-opacity:1;fill-rule:nonzero;stroke:none"
         transform="matrix(0.13333333,0,0,-0.13333333,0,221.81333)" />
      <path
         id="path9"
         d="m 1774.4,1.64844 h -87.16 V 128.801 h 85.74 V 103.309 H 1722.1 V 80 h 48.55 V 54.3984 H 1722.1 V 27.2383 h 52.3 V 1.64844"
         style="fill:#e91638;fill-opacity:1;fill-rule:nonzero;stroke:none"
         transform="matrix(0.13333333,0,0,-0.13333333,0,221.81333)" />
      <path
         id="path10"
         d="m 40.707,413.219 c 0,-43.219 7.4532,-75.668 22.3477,-97.348 14.8945,-21.68 37.2423,-32.512 67.0353,-32.512 26.137,0 46.801,10.832 61.98,32.512 15.18,21.68 22.774,54 22.774,96.957 0,41.762 -7.477,73.781 -22.434,96.051 -14.949,22.269 -36.64,33.41 -65.062,33.41 -27.9691,0 -49.3988,-10.879 -64.2933,-32.617 C 48.1602,487.941 40.707,455.781 40.707,413.219 Z M 145.398,274.441 c -5.359,-0.66 -11.121,-1 -17.277,-1 -37.3046,0 -67.7343,12.86 -91.289,38.571 C 13.2773,337.711 1.5,371.91 1.5,414.609 c 0,41.36 11.9492,74.641 35.8477,99.821 23.8984,25.179 53.8086,37.769 89.7463,37.769 22.129,0 43.515,-5.578 64.168,-16.758 20.64,-11.171 36.265,-27.679 46.883,-49.562 10.605,-21.867 15.914,-46.09 15.914,-72.66 0,-30.93 -6.934,-58.278 -20.793,-82.078 -13.864,-23.789 -33.911,-40.442 -60.145,-49.961 L 121.98,248.672 c 3.54,0.387 6.614,0.59 9.235,0.59 25.316,0 54.453,-6.653 87.406,-19.942 25.32,-10.23 45.387,-15.351 60.211,-15.351 20.527,0 32.727,8.98 36.606,26.961 h 7.277 c -1.938,-18.239 -8.5,-33.032 -19.684,-44.41 -11.179,-11.372 -25.613,-17.051 -43.301,-17.051 -11.632,0 -22.218,2.191 -31.746,6.543 -9.527,4.367 -21.933,12.168 -37.222,23.398 -27.387,20.219 -50.203,30.328 -68.461,30.328 -10.946,0 -21.539,-5.019 -31.7971,-15.066 -6.8359,-6.602 -11.5703,-9.91 -14.1914,-9.91 -4.1016,0 -6.1523,2.179 -6.1523,6.539 0,3.308 2.4531,6.711 7.3515,10.219 4.8985,3.5 14.1406,9.082 27.7033,16.75 2.851,1.589 5.699,3.308 8.551,5.152 l 31.632,21.019"
         style="fill:#ffffff;fill-opacity:1;fill-rule:nonzero;stroke:none"
         transform="matrix(0.13333333,0,0,-0.13333333,0,221.81333)" />
      <path
         id="path11"
         d="m 40.707,413.219 c 0,-43.219 7.4532,-75.668 22.3477,-97.348 14.8945,-21.68 37.2423,-32.512 67.0353,-32.512 26.137,0 46.801,10.832 61.98,32.512 15.18,21.68 22.774,54 22.774,96.957 0,41.762 -7.477,73.781 -22.434,96.051 -14.949,22.269 -36.64,33.41 -65.062,33.41 -27.9691,0 -49.3988,-10.879 -64.2933,-32.617 C 48.1602,487.941 40.707,455.781 40.707,413.219 Z M 145.398,274.441 c -5.359,-0.66 -11.121,-1 -17.277,-1 -37.3046,0 -67.7343,12.86 -91.289,38.571 C 13.2773,337.711 1.5,371.91 1.5,414.609 c 0,41.36 11.9492,74.641 35.8477,99.821 23.8984,25.179 53.8086,37.769 89.7463,37.769 22.129,0 43.515,-5.578 64.168,-16.758 20.64,-11.171 36.265,-27.679 46.883,-49.562 10.605,-21.867 15.914,-46.09 15.914,-72.66 0,-30.93 -6.934,-58.278 -20.793,-82.078 -13.864,-23.789 -33.911,-40.442 -60.145,-49.961 L 121.98,248.672 c 3.54,0.387 6.614,0.59 9.235,0.59 25.316,0 54.453,-6.653 87.406,-19.942 25.32,-10.23 45.387,-15.351 60.211,-15.351 20.527,0 32.727,8.98 36.606,26.961 h 7.277 c -1.938,-18.239 -8.5,-33.032 -19.684,-44.41 -11.179,-11.372 -25.613,-17.051 -43.301,-17.051 -11.632,0 -22.218,2.191 -31.746,6.543 -9.527,4.367 -21.933,12.168 -37.222,23.398 -27.387,20.219 -50.203,30.328 -68.461,30.328 -10.946,0 -21.539,-5.019 -31.7971,-15.066 -6.8359,-6.602 -11.5703,-9.91 -14.1914,-9.91 -4.1016,0 -6.1523,2.179 -6.1523,6.539 0,3.308 2.4531,6.711 7.3515,10.219 4.8985,3.5 14.1406,9.082 27.7033,16.75 2.851,1.589 5.699,3.308 8.551,5.152 z"
         style="fill:#ffffff;stroke:#231f20;stroke-width:3;stroke-linecap:butt;stroke-linejoin:miter;stroke-miterlimit:4;stroke-dasharray:none;stroke-opacity:1"
         transform="matrix(0.13333333,0,0,-0.13333333,0,221.81333)" />
      <path
         id="path12"
         d="m 519.867,534.84 v -7.199 c -13.894,-1 -22.902,-3.493 -27.023,-7.469 -4.121,-3.973 -6.184,-13.094 -6.184,-27.352 V 368.859 c 0,-20.308 2.594,-36.14 7.774,-47.5 9.652,-20.687 27.964,-31.031 54.929,-31.031 29.559,0 49.399,10.594 59.528,31.793 5.652,11.859 8.476,30.149 8.476,54.879 v 100.871 c 0,21.07 -2.351,34.277 -7.062,39.649 -4.715,5.359 -13.664,8.742 -26.848,10.121 v 7.199 h 83.723 v -7.199 c -14.016,-1.641 -23.172,-5.262 -27.469,-10.879 -4.297,-5.614 -6.445,-18.582 -6.445,-38.891 V 377 c 0,-26.75 -3.828,-47.629 -11.481,-62.641 -14.129,-27.629 -40.98,-41.437 -80.547,-41.437 -39.093,0 -65.707,13.617 -79.836,40.867 -7.656,14.633 -11.48,33.941 -11.48,57.91 V 492.82 c 0,14.129 -2.031,23.18 -6.094,27.16 -4.062,3.969 -12.926,6.532 -26.582,7.661 v 7.199 h 102.621"
         style="fill:#ffffff;fill-opacity:1;fill-rule:nonzero;stroke:none"
         transform="matrix(0.13333333,0,0,-0.13333333,0,221.81333)" />
      <path
         id="path13"
         d="m 519.867,534.84 v -7.199 c -13.894,-1 -22.902,-3.493 -27.023,-7.469 -4.121,-3.973 -6.184,-13.094 -6.184,-27.352 V 368.859 c 0,-20.308 2.594,-36.14 7.774,-47.5 9.652,-20.687 27.964,-31.031 54.929,-31.031 29.559,0 49.399,10.594 59.528,31.793 5.652,11.859 8.476,30.149 8.476,54.879 v 100.871 c 0,21.07 -2.351,34.277 -7.062,39.649 -4.715,5.359 -13.664,8.742 -26.848,10.121 v 7.199 h 83.723 v -7.199 c -14.016,-1.641 -23.172,-5.262 -27.469,-10.879 -4.297,-5.614 -6.445,-18.582 -6.445,-38.891 V 377 c 0,-26.75 -3.828,-47.629 -11.481,-62.641 -14.129,-27.629 -40.98,-41.437 -80.547,-41.437 -39.093,0 -65.707,13.617 -79.836,40.867 -7.656,14.633 -11.48,33.941 -11.48,57.91 V 492.82 c 0,14.129 -2.031,23.18 -6.094,27.16 -4.062,3.969 -12.926,6.532 -26.582,7.661 v 7.199 z"
         style="fill:#ffffff;stroke:#231f20;stroke-width:2.5;stroke-linecap:butt;stroke-linejoin:miter;stroke-miterlimit:4;stroke-dasharray:none;stroke-opacity:1"
         transform="matrix(0.13333333,0,0,-0.13333333,0,221.81333)" />
      <path
         id="path14"
         d="m 822.301,285.59 c 13.304,1.519 21.929,4.051 25.879,7.629 3.937,3.57 5.914,12.64 5.914,27.203 V 492.82 c 0,13.75 -1.946,22.739 -5.828,26.969 -3.887,4.231 -12.543,6.852 -25.965,7.852 v 7.199 h 192.179 l 1.23,-55.449 h -9.18 c -3.07,17.07 -7.659,28.129 -13.78,33.14 -6.125,5.028 -19.781,7.539 -40.977,7.539 h -49.25 c -5.316,0 -8.593,-0.91 -9.828,-2.742 -1.246,-1.828 -1.859,-5.269 -1.859,-10.308 v -86.489 h 55.812 c 15.426,0 25.262,2.438 29.5,7.34 4.239,4.899 7.653,14.809 10.243,29.75 h 8.476 v -89.512 h -8.476 c -2.707,15.012 -6.18,24.942 -10.418,29.813 -4.243,4.848 -14.02,7.277 -29.325,7.277 H 890.836 V 309.25 c 0,-7.691 2.266,-12.23 6.805,-13.629 4.543,-1.391 18.129,-2.082 40.777,-2.082 24.527,0 42.633,2.871 54.301,8.609 11.671,5.75 22.171,19.653 31.471,41.731 h 10.07 l -16.43,-65.481 H 822.301 v 7.192"
         style="fill:#ffffff;fill-opacity:1;fill-rule:nonzero;stroke:none"
         transform="matrix(0.13333333,0,0,-0.13333333,0,221.81333)" />
      <path
         id="path15"
         d="m 822.301,285.59 c 13.304,1.519 21.929,4.051 25.879,7.629 3.937,3.57 5.914,12.64 5.914,27.203 V 492.82 c 0,13.75 -1.946,22.739 -5.828,26.969 -3.887,4.231 -12.543,6.852 -25.965,7.852 v 7.199 h 192.179 l 1.23,-55.449 h -9.18 c -3.07,17.07 -7.659,28.129 -13.78,33.14 -6.125,5.028 -19.781,7.539 -40.977,7.539 h -49.25 c -5.316,0 -8.593,-0.91 -9.828,-2.742 -1.246,-1.828 -1.859,-5.269 -1.859,-10.308 v -86.489 h 55.812 c 15.426,0 25.262,2.438 29.5,7.34 4.239,4.899 7.653,14.809 10.243,29.75 h 8.476 v -89.512 h -8.476 c -2.707,15.012 -6.18,24.942 -10.418,29.813 -4.243,4.848 -14.02,7.277 -29.325,7.277 H 890.836 V 309.25 c 0,-7.691 2.266,-12.23 6.805,-13.629 4.543,-1.391 18.129,-2.082 40.777,-2.082 24.527,0 42.633,2.871 54.301,8.609 11.671,5.75 22.171,19.653 31.471,41.731 h 10.07 l -16.43,-65.481 H 822.301 Z"
         style="fill:#ffffff;stroke:#231f20;stroke-width:2.5;stroke-linecap:butt;stroke-linejoin:miter;stroke-miterlimit:4;stroke-dasharray:none;stroke-opacity:1"
         transform="matrix(0.13333333,0,0,-0.13333333,0,221.81333)" />
      <path
         id="path16"
         d="m 1187.96,285.59 c 13.3,1.519 21.93,4.051 25.88,7.629 3.94,3.57 5.91,12.64 5.91,27.203 V 492.82 c 0,13.75 -1.94,22.739 -5.82,26.969 -3.89,4.231 -12.55,6.852 -25.97,7.852 v 7.199 h 192.17 l 1.24,-55.449 h -9.19 c -3.06,17.07 -7.65,28.129 -13.77,33.14 -6.13,5.028 -19.78,7.539 -40.97,7.539 h -49.26 c -5.31,0 -8.59,-0.91 -9.83,-2.742 -1.24,-1.828 -1.86,-5.269 -1.86,-10.308 v -86.489 h 55.82 c 15.42,0 25.26,2.438 29.5,7.34 4.24,4.899 7.65,14.809 10.24,29.75 h 8.47 v -89.512 h -8.47 c -2.71,15.012 -6.18,24.942 -10.41,29.813 -4.25,4.848 -14.03,7.277 -29.33,7.277 h -55.82 V 309.25 c 0,-7.691 2.27,-12.23 6.81,-13.629 4.55,-1.391 18.13,-2.082 40.78,-2.082 24.53,0 42.63,2.871 54.29,8.609 11.68,5.75 22.17,19.653 31.48,41.731 h 10.07 l -16.43,-65.481 h -195.53 v 7.192"
         style="fill:#ffffff;fill-opacity:1;fill-rule:nonzero;stroke:none"
         transform="matrix(0.13333333,0,0,-0.13333333,0,221.81333)" />
      <path
         id="path17"
         d="m 1187.96,285.59 c 13.3,1.519 21.93,4.051 25.88,7.629 3.94,3.57 5.91,12.64 5.91,27.203 V 492.82 c 0,13.75 -1.94,22.739 -5.82,26.969 -3.89,4.231 -12.55,6.852 -25.97,7.852 v 7.199 h 192.17 l 1.24,-55.449 h -9.19 c -3.06,17.07 -7.65,28.129 -13.77,33.14 -6.13,5.028 -19.78,7.539 -40.97,7.539 h -49.26 c -5.31,0 -8.59,-0.91 -9.83,-2.742 -1.24,-1.828 -1.86,-5.269 -1.86,-10.308 v -86.489 h 55.82 c 15.42,0 25.26,2.438 29.5,7.34 4.24,4.899 7.65,14.809 10.24,29.75 h 8.47 v -89.512 h -8.47 c -2.71,15.012 -6.18,24.942 -10.41,29.813 -4.25,4.848 -14.03,7.277 -29.33,7.277 h -55.82 V 309.25 c 0,-7.691 2.27,-12.23 6.81,-13.629 4.55,-1.391 18.13,-2.082 40.78,-2.082 24.53,0 42.63,2.871 54.29,8.609 11.68,5.75 22.17,19.653 31.48,41.731 h 10.07 l -16.43,-65.481 h -195.53 z"
         style="fill:#ffffff;stroke:#231f20;stroke-width:2.5;stroke-linecap:butt;stroke-linejoin:miter;stroke-miterlimit:4;stroke-dasharray:none;stroke-opacity:1"
         transform="matrix(0.13333333,0,0,-0.13333333,0,221.81333)" />
      <path
         id="path18"
         d="m 1553.63,285.59 c 14.94,1.64 24.55,5.269 28.79,10.879 4.24,5.609 6.35,18.621 6.35,39.051 v 170.761 l -4.95,6.239 c -5.29,6.671 -9.8,10.808 -13.51,12.378 -3.7,1.582 -9.27,2.493 -16.68,2.743 v 7.199 h 61.72 l 139.64,-185.442 v 128.793 c 0,21.188 -2.95,34.981 -8.84,41.368 -3.89,4.14 -12.48,6.832 -25.78,8.082 v 7.199 h 84.96 v -7.199 c -13.78,-1.512 -22.97,-5.11 -27.56,-10.782 -4.59,-5.679 -6.9,-18.679 -6.9,-38.988 V 273.859 h -6.17 L 1604.66,486.391 V 335.512 c 0,-21.184 2.89,-34.981 8.67,-41.403 3.75,-4.16 12.18,-7 25.26,-8.519 v -7.192 h -84.96 v 7.192"
         style="fill:#ffffff;fill-opacity:1;fill-rule:nonzero;stroke:none"
         transform="matrix(0.13333333,0,0,-0.13333333,0,221.81333)" />
      <path
         id="path19"
         d="m 1553.63,285.59 c 14.94,1.64 24.55,5.269 28.79,10.879 4.24,5.609 6.35,18.621 6.35,39.051 v 170.761 l -4.95,6.239 c -5.29,6.671 -9.8,10.808 -13.51,12.378 -3.7,1.582 -9.27,2.493 -16.68,2.743 v 7.199 h 61.72 l 139.64,-185.442 v 128.793 c 0,21.188 -2.95,34.981 -8.84,41.368 -3.89,4.14 -12.48,6.832 -25.78,8.082 v 7.199 h 84.96 v -7.199 c -13.78,-1.512 -22.97,-5.11 -27.56,-10.782 -4.59,-5.679 -6.9,-18.679 -6.9,-38.988 V 273.859 h -6.17 L 1604.66,486.391 V 335.512 c 0,-21.184 2.89,-34.981 8.67,-41.403 3.75,-4.16 12.18,-7 25.26,-8.519 v -7.192 h -84.96 z"
         style="fill:#ffffff;stroke:#231f20;stroke-width:2.5;stroke-linecap:butt;stroke-linejoin:miter;stroke-miterlimit:4;stroke-dasharray:none;stroke-opacity:1"
         transform="matrix(0.13333333,0,0,-0.13333333,0,221.81333)" />
      <path
         id="path20"
         d="m 1978.81,356.371 c 6.12,-17.41 13.29,-31.293 21.52,-41.633 14.34,-18.047 32.16,-27.058 53.43,-27.058 11.53,0 21.5,3.91 29.91,11.73 8.4,7.82 12.6,18.738 12.6,32.738 0,12.614 -4.22,23.59 -12.68,32.93 -5.53,5.934 -17.17,14.832 -34.91,26.684 l -30.85,20.629 c -9.3,6.308 -16.7,12.679 -22.23,19.121 -10.25,12.238 -15.37,25.726 -15.37,40.5 0,19.547 6.05,35.828 18.18,48.828 12.13,12.98 28.21,19.488 48.23,19.488 8.24,0 18.16,-2.18 29.76,-6.539 11.6,-4.348 18.22,-6.527 19.87,-6.527 4.48,0 7.57,1.136 9.27,3.41 1.71,2.269 3.04,5.488 3.99,9.656 h 7.41 l 7.95,-82.519 h -8.66 c -5.88,24.851 -15.34,42.211 -28.34,52.05 -13.01,9.832 -25.88,14.75 -38.6,14.75 -9.89,0 -18.51,-3.121 -25.88,-9.359 -7.36,-6.25 -11.03,-14.922 -11.03,-26.031 0,-9.969 2.81,-18.481 8.45,-25.539 5.65,-7.192 14.4,-14.7 26.29,-22.52 l 31.76,-21.012 c 19.88,-13.117 33.91,-25.168 42.07,-36.148 8.05,-11.102 12.06,-24.219 12.06,-39.359 0,-20.321 -7.16,-37.282 -21.45,-50.903 -14.32,-13.636 -32.6,-20.437 -54.85,-20.437 -11.19,0 -22.88,2.258 -35.06,6.801 -12.19,4.546 -19.17,6.82 -20.93,6.82 -4.24,0 -7.1,-1.391 -8.58,-4.16 -1.46,-2.782 -2.44,-5.742 -2.91,-8.903 h -7.95 l -10.77,82.512 h 8.3"
         style="fill:#ffffff;fill-opacity:1;fill-rule:nonzero;stroke:none"
         transform="matrix(0.13333333,0,0,-0.13333333,0,221.81333)" />
      <path
         id="path21"
         d="m 1978.81,356.371 c 6.12,-17.41 13.29,-31.293 21.52,-41.633 14.34,-18.047 32.16,-27.058 53.43,-27.058 11.53,0 21.5,3.91 29.91,11.73 8.4,7.82 12.6,18.738 12.6,32.738 0,12.614 -4.22,23.59 -12.68,32.93 -5.53,5.934 -17.17,14.832 -34.91,26.684 l -30.85,20.629 c -9.3,6.308 -16.7,12.679 -22.23,19.121 -10.25,12.238 -15.37,25.726 -15.37,40.5 0,19.547 6.05,35.828 18.18,48.828 12.13,12.98 28.21,19.488 48.23,19.488 8.24,0 18.16,-2.18 29.76,-6.539 11.6,-4.348 18.22,-6.527 19.87,-6.527 4.48,0 7.57,1.136 9.27,3.41 1.71,2.269 3.04,5.488 3.99,9.656 h 7.41 l 7.95,-82.519 h -8.66 c -5.88,24.851 -15.34,42.211 -28.34,52.05 -13.01,9.832 -25.88,14.75 -38.6,14.75 -9.89,0 -18.51,-3.121 -25.88,-9.359 -7.36,-6.25 -11.03,-14.922 -11.03,-26.031 0,-9.969 2.81,-18.481 8.45,-25.539 5.65,-7.192 14.4,-14.7 26.29,-22.52 l 31.76,-21.012 c 19.88,-13.117 33.91,-25.168 42.07,-36.148 8.05,-11.102 12.06,-24.219 12.06,-39.359 0,-20.321 -7.16,-37.282 -21.45,-50.903 -14.32,-13.636 -32.6,-20.437 -54.85,-20.437 -11.19,0 -22.88,2.258 -35.06,6.801 -12.19,4.546 -19.17,6.82 -20.93,6.82 -4.24,0 -7.1,-1.391 -8.58,-4.16 -1.46,-2.782 -2.44,-5.742 -2.91,-8.903 h -7.95 l -10.77,82.512 z"
         style="fill:#ffffff;stroke:#231f20;stroke-width:2.5;stroke-linecap:butt;stroke-linejoin:miter;stroke-miterlimit:4;stroke-dasharray:none;stroke-opacity:1"
         transform="matrix(0.13333333,0,0,-0.13333333,0,221.81333)" />
      <path
         id="path22"
         d="m 1181.76,921.539 c 140.24,45.262 303.93,81.971 471.09,85.121 -133.68,13.76 -274.97,-0.52 -409.11,-30.191 -14.48,-13.821 -34.52,-31.836 -61.98,-54.93"
         style="fill:#e91638;fill-opacity:1;fill-rule:nonzero;stroke:none"
         transform="matrix(0.13333333,0,0,-0.13333333,0,221.81333)" />
      <path
         id="path23"
         d="m 1050.84,944.301 c -73.063,3.418 -126.606,34.914 -160.524,94.689 -33.808,59.55 -48.015,147.22 -42.617,262.67 5.391,113.83 27.688,198.88 67.063,255.3 39.246,56.4 93.228,82.95 161.958,79.77 69.77,-3.3 121.7,-35.55 155.61,-96.84 33.96,-61.28 48.25,-147.67 42.96,-259.37 -5.4,-114.83 -28.16,-200.36 -68.12,-256.45 -40,-56.293 -92.17,-82.812 -156.33,-79.769 z m 609.49,22.051 c -135.51,-7.403 -366.05,-31.278 -556.15,-107.715 87.59,68.886 132.12,109.601 154.68,132.754 20.44,19.719 34.41,40.379 51.38,68.699 37.04,62 57.5,134.32 61.44,216.96 3.28,71.03 -6.63,136.43 -30.03,196.11 -23.2,59.66 -59.63,105.59 -108.86,137.86 -49.37,32.32 -101.1,49.64 -155.43,52.17 -88.321,4.18 -163.333,-25.97 -225.169,-90.5 -61.796,-64.52 -95.378,-152.09 -100.574,-262.76 -5.41,-114.11 19.207,-206.78 73.848,-278.22 53.484,-70.065 124.785,-107.69 213.845,-113.276 1.6,-0.079 11.2,-0.43 16.66,-0.567 0.62,-0.019 1.26,-0.019 1.88,-0.039 0.11,0 0.28,0 0.38,0 -9.05,-7.746 -58.91,-49.973 -92.687,-78.887 -12.512,-10.703 -22.883,-19.64 -28.047,-24.257 -29.543,-25.235 -60.019,-51.243 -86.738,-74.004 l 77.519,-77.559 c 39.168,34.844 318.283,266.727 847.233,306.484 0,0 -44.85,0.575 -115.18,-3.253"
         style="fill:#ffffff;fill-opacity:1;fill-rule:nonzero;stroke:none"
         transform="matrix(0.13333333,0,0,-0.13333333,0,221.81333)" />
    </g>
  </g>
</svg>
