<?xml version="1.0" encoding="UTF-8" standalone="no"?>
<svg
   width="124.27pt"
   height="102.77pt"
   viewBox="0 0 124.27 102.77"
   version="1.1"
   id="svg29"
   sodipodi:docname="SBU vert_2clr_rgb.svg"
   inkscape:version="1.4.2 (ebf0e940, 2025-05-08)"
   xmlns:inkscape="http://www.inkscape.org/namespaces/inkscape"
   xmlns:sodipodi="http://sodipodi.sourceforge.net/DTD/sodipodi-0.dtd"
   xmlns="http://www.w3.org/2000/svg"
   xmlns:svg="http://www.w3.org/2000/svg">
  <sodipodi:namedview
     id="namedview29"
     pagecolor="#ffffff"
     bordercolor="#000000"
     borderopacity="0.25"
     inkscape:showpageshadow="2"
     inkscape:pageopacity="0.0"
     inkscape:pagecheckerboard="0"
     inkscape:deskcolor="#d1d1d1"
     inkscape:document-units="pt"
     inkscape:zoom="2.2369811"
     inkscape:cx="90.523787"
     inkscape:cy="71.524968"
     inkscape:window-width="1344"
     inkscape:window-height="693"
     inkscape:window-x="0"
     inkscape:window-y="38"
     inkscape:window-maximized="0"
     inkscape:current-layer="svg29" />
  <defs
     id="defs2">
    <clipPath
       id="clip-0">
      <path
         clip-rule="nonzero"
         d="M 110 56 L 124.269531 56 L 124.269531 74 L 110 74 Z M 110 56 "
         id="path1" />
    </clipPath>
    <clipPath
       id="clip-1">
      <path
         clip-rule="nonzero"
         d="M 102 86 L 115 86 L 115 102.769531 L 102 102.769531 Z M 102 86 "
         id="path2" />
    </clipPath>
  </defs>
  <path
     fill-rule="nonzero"
     fill="rgb(6.266785%, 5.734253%, 5.047607%)"
     fill-opacity="1"
     d="M 0.960938 74.066406 L 0.121094 74.066406 L 0 67.105469 L 0.984375 67.105469 C 1.703125 71.066406 3.71875 73.128906 6.792969 73.128906 C 9.410156 73.128906 10.847656 71.808594 10.847656 69.699219 C 10.847656 68.691406 10.464844 67.898438 9.792969 67.417969 C 8.953125 66.816406 7.609375 66.578125 5.855469 66.097656 C 2.015625 65.066406 0.167969 64.105469 0.167969 60.9375 C 0.167969 57.960938 2.160156 56.039062 5.28125 56.039062 C 7.03125 56.039062 8.570312 56.617188 9.769531 57.71875 L 10.703125 56.28125 L 11.59375 56.28125 L 11.855469 62.519531 L 10.921875 62.519531 C 10.007812 58.945312 8.113281 57.144531 5.28125 57.144531 C 3.167969 57.144531 1.96875 58.199219 1.96875 60.046875 C 1.96875 62.351562 3.769531 62.617188 6.960938 63.410156 C 8.6875 63.839844 10.128906 64.203125 11.234375 65.210938 C 12.167969 66.074219 12.695312 67.367188 12.695312 68.90625 C 12.695312 72.242188 10.585938 74.210938 6.746094 74.210938 C 4.871094 74.210938 3.121094 73.539062 1.96875 72.410156 L 0.960938 74.066406 "
     id="path3"
     style="fill:#ffffff" />
  <path
     fill-rule="nonzero"
     fill="rgb(6.266785%, 5.734253%, 5.047607%)"
     fill-opacity="1"
     d="M 12.9375 63.722656 L 12.9375 62.761719 C 14.902344 62.617188 16.03125 60.914062 16.152344 57.792969 L 17.160156 57.792969 L 17.160156 62.664062 L 20.617188 62.664062 L 20.617188 63.722656 L 17.039062 63.722656 L 17.039062 70.65625 C 17.039062 72.027344 17.304688 72.699219 18.457031 72.699219 C 19.777344 72.699219 20.375 71.640625 20.449219 69.433594 L 21.335938 69.433594 C 21.335938 69.53125 21.335938 69.648438 21.335938 69.746094 C 21.335938 72.648438 20.015625 74.1875 17.59375 74.1875 C 15.433594 74.1875 14.855469 73.128906 14.855469 70.875 L 14.855469 63.722656 L 12.9375 63.722656 "
     id="path4"
     style="fill:#ffffff" />
  <path
     fill-rule="nonzero"
     fill="rgb(6.266785%, 5.734253%, 5.047607%)"
     fill-opacity="1"
     d="M 27.359375 73.175781 C 29.472656 73.175781 30.3125 71.617188 30.3125 68.234375 C 30.3125 64.847656 29.472656 63.265625 27.382812 63.265625 C 25.296875 63.265625 24.457031 64.847656 24.457031 68.234375 C 24.457031 71.59375 25.320312 73.175781 27.359375 73.175781 Z M 27.382812 62.28125 C 30.550781 62.28125 32.761719 64.65625 32.761719 68.234375 C 32.761719 71.808594 30.527344 74.164062 27.382812 74.164062 C 24.238281 74.164062 21.984375 71.808594 21.984375 68.234375 C 21.984375 64.65625 24.214844 62.28125 27.382812 62.28125 "
     id="path5"
     style="fill:#ffffff" />
  <path
     fill-rule="nonzero"
     fill="rgb(6.266785%, 5.734253%, 5.047607%)"
     fill-opacity="1"
     d="M 33.335938 72.769531 L 34.367188 72.722656 C 35.039062 72.699219 35.160156 72.53125 35.160156 71.832031 L 35.160156 64.539062 C 35.160156 63.746094 34.871094 63.578125 33.839844 63.578125 C 33.625 63.578125 33.382812 63.601562 33.121094 63.601562 L 33.121094 62.664062 L 37.222656 62.378906 L 37.222656 64.679688 C 38.304688 63.097656 39.503906 62.378906 41.160156 62.378906 C 43.441406 62.378906 44.785156 63.746094 44.785156 66.21875 L 44.785156 71.832031 C 44.785156 72.53125 44.929688 72.699219 45.578125 72.722656 L 46.609375 72.769531 L 46.609375 73.777344 L 40.800781 73.777344 L 40.800781 72.769531 L 41.832031 72.722656 C 42.457031 72.699219 42.625 72.53125 42.625 71.832031 L 42.625 66.121094 C 42.625 64.679688 41.832031 63.863281 40.417969 63.863281 C 38.402344 63.863281 37.34375 65.210938 37.34375 67.875 L 37.34375 71.832031 C 37.34375 72.507812 37.441406 72.699219 38.136719 72.722656 L 39.144531 72.769531 L 39.144531 73.777344 L 33.335938 73.777344 L 33.335938 72.769531 "
     id="path6"
     style="fill:#ffffff" />
  <path
     fill-rule="nonzero"
     fill="rgb(6.266785%, 5.734253%, 5.047607%)"
     fill-opacity="1"
     d="M 47.78125 64.707031 C 47.613281 64.34375 47.421875 64.058594 47.230469 63.9375 C 46.945312 63.746094 46.511719 63.671875 45.933594 63.671875 L 45.933594 62.664062 L 51.527344 62.664062 L 51.527344 63.671875 C 51.289062 63.671875 51.09375 63.671875 50.925781 63.671875 C 50.230469 63.671875 49.96875 63.746094 49.96875 64.175781 C 49.96875 64.320312 50.0625 64.5625 50.207031 64.921875 L 52.753906 70.777344 L 55.152344 65.015625 C 55.199219 64.875 55.273438 64.730469 55.273438 64.488281 C 55.273438 63.816406 54.792969 63.695312 53.59375 63.671875 L 53.59375 62.664062 L 58.222656 62.664062 L 58.222656 63.671875 C 57.335938 63.671875 56.808594 64.082031 56.421875 64.96875 L 52.367188 74.402344 C 51.121094 77.304688 49.800781 78.769531 47.710938 78.769531 C 46.296875 78.769531 45.503906 78.050781 45.503906 76.921875 C 45.503906 76.128906 46.101562 75.507812 46.945312 75.507812 C 47.710938 75.507812 48.191406 75.960938 48.191406 76.679688 C 48.191406 77.089844 48 77.28125 48 77.378906 C 48 77.546875 48.144531 77.644531 48.429688 77.644531 C 49.199219 77.644531 50.398438 76.371094 51.429688 73.875 L 51.597656 73.488281 L 47.78125 64.707031 "
     id="path7"
     style="fill:#ffffff" />
  <path
     fill-rule="nonzero"
     fill="rgb(6.266785%, 5.734253%, 5.047607%)"
     fill-opacity="1"
     d="M 67.632812 71.523438 C 67.632812 72.410156 67.871094 72.648438 68.953125 72.648438 L 70.65625 72.648438 C 73.511719 72.648438 74.761719 71.640625 74.761719 69.050781 C 74.761719 66.3125 73.246094 65.328125 69.792969 65.328125 L 67.632812 65.328125 Z M 67.632812 64.273438 L 69.550781 64.273438 C 72.648438 64.273438 74.015625 63.550781 74.015625 60.890625 C 74.015625 58.464844 72.933594 57.527344 70.34375 57.527344 L 68.832031 57.527344 C 67.847656 57.527344 67.632812 57.769531 67.632812 58.585938 Z M 62.542969 72.648438 L 63.789062 72.648438 C 64.75 72.648438 65.0625 72.433594 65.0625 71.496094 L 65.0625 58.726562 C 65.0625 57.792969 64.75 57.578125 63.789062 57.578125 L 62.542969 57.578125 L 62.542969 56.449219 L 71.613281 56.449219 C 75.023438 56.449219 76.800781 57.9375 76.800781 60.671875 C 76.800781 62.738281 75.457031 64.105469 72.769531 64.679688 C 76.078125 65.113281 77.6875 66.578125 77.6875 69.121094 C 77.6875 72.027344 75.429688 73.777344 71.328125 73.777344 L 62.542969 73.777344 L 62.542969 72.648438 "
     id="path8"
     style="fill:#ffffff" />
  <path
     fill-rule="nonzero"
     fill="rgb(6.266785%, 5.734253%, 5.047607%)"
     fill-opacity="1"
     d="M 83.253906 72.722656 L 84.71875 72.769531 L 84.71875 73.777344 L 78.40625 73.777344 L 78.40625 72.769531 L 79.535156 72.722656 C 80.207031 72.699219 80.328125 72.507812 80.328125 71.832031 L 80.328125 64.539062 C 80.328125 63.695312 80.015625 63.601562 78.886719 63.601562 C 78.671875 63.601562 78.429688 63.601562 78.167969 63.601562 L 78.167969 62.664062 L 82.34375 62.378906 L 82.34375 65.761719 C 83.085938 63.480469 84.3125 62.304688 85.847656 62.304688 C 87.144531 62.304688 88.03125 63.191406 88.03125 64.34375 C 88.03125 65.234375 87.429688 65.832031 86.640625 65.832031 C 85.75 65.832031 85.222656 65.28125 85.222656 64.464844 C 85.222656 64.035156 85.390625 63.648438 85.703125 63.433594 C 85.65625 63.433594 85.605469 63.433594 85.558594 63.433594 C 84.046875 63.433594 82.464844 65.714844 82.464844 69.265625 L 82.464844 71.832031 C 82.464844 72.507812 82.582031 72.699219 83.253906 72.722656 "
     id="path9"
     style="fill:#ffffff" />
  <path
     fill-rule="nonzero"
     fill="rgb(6.266785%, 5.734253%, 5.047607%)"
     fill-opacity="1"
     d="M 93.695312 73.175781 C 95.808594 73.175781 96.648438 71.617188 96.648438 68.234375 C 96.648438 64.847656 95.808594 63.265625 93.71875 63.265625 C 91.632812 63.265625 90.789062 64.847656 90.789062 68.234375 C 90.789062 71.59375 91.65625 73.175781 93.695312 73.175781 Z M 93.71875 62.28125 C 96.886719 62.28125 99.09375 64.65625 99.09375 68.234375 C 99.09375 71.808594 96.863281 74.164062 93.71875 74.164062 C 90.574219 74.164062 88.320312 71.808594 88.320312 68.234375 C 88.320312 64.65625 90.550781 62.28125 93.71875 62.28125 "
     id="path10"
     style="fill:#ffffff" />
  <path
     fill-rule="nonzero"
     fill="rgb(6.266785%, 5.734253%, 5.047607%)"
     fill-opacity="1"
     d="M 105.550781 73.175781 C 107.664062 73.175781 108.503906 71.617188 108.503906 68.234375 C 108.503906 64.847656 107.664062 63.265625 105.574219 63.265625 C 103.484375 63.265625 102.644531 64.847656 102.644531 68.234375 C 102.644531 71.59375 103.511719 73.175781 105.550781 73.175781 Z M 105.574219 62.28125 C 108.742188 62.28125 110.949219 64.65625 110.949219 68.234375 C 110.949219 71.808594 108.71875 74.164062 105.574219 74.164062 C 102.429688 74.164062 100.175781 71.808594 100.175781 68.234375 C 100.175781 64.65625 102.40625 62.28125 105.574219 62.28125 "
     id="path11"
     style="fill:#ffffff" />
  <g
     clip-path="url(#clip-0)"
     id="g12"
     style="fill:#ffffff">
    <path
       fill-rule="nonzero"
       fill="rgb(6.266785%, 5.734253%, 5.047607%)"
       fill-opacity="1"
       d="M 110.996094 72.769531 L 112.078125 72.722656 C 112.75 72.699219 112.894531 72.507812 112.894531 71.832031 L 112.894531 58.175781 C 112.894531 57.382812 112.605469 57.214844 111.574219 57.214844 C 111.382812 57.214844 111.140625 57.238281 110.878906 57.238281 L 110.878906 56.304688 L 115.078125 56.015625 L 115.078125 67.898438 L 118.773438 64.511719 C 118.941406 64.34375 119.0625 64.105469 119.0625 63.984375 C 119.0625 63.671875 118.679688 63.578125 117.839844 63.578125 L 117.070312 63.578125 L 117.070312 62.664062 L 123.214844 62.664062 L 123.214844 63.578125 C 123.167969 63.578125 123.117188 63.578125 123.070312 63.578125 C 121.511719 63.578125 120.574219 64.320312 119.351562 65.449219 L 118.128906 66.578125 L 121.894531 71.59375 C 122.496094 72.410156 123.167969 72.722656 124.269531 72.769531 L 124.269531 73.777344 L 118.078125 73.777344 L 118.078125 72.769531 L 118.800781 72.722656 C 119.351562 72.699219 119.640625 72.648438 119.640625 72.363281 C 119.640625 72.167969 119.542969 72.050781 119.421875 71.882812 L 116.542969 67.992188 L 115.078125 69.289062 L 115.078125 71.832031 C 115.078125 72.53125 115.222656 72.699219 115.894531 72.722656 L 116.949219 72.769531 L 116.949219 73.777344 L 110.996094 73.777344 L 110.996094 72.769531 "
       id="path12"
       style="fill:#ffffff" />
  </g>
  <path
     fill-rule="nonzero"
     fill="rgb(59.144592%, 10.105896%, 12.10022%)"
     fill-opacity="1"
     d="M 16.667969 80.449219 L 16.667969 81.578125 L 15.421875 81.578125 C 14.460938 81.578125 14.148438 81.816406 14.148438 82.726562 L 14.148438 92.425781 C 14.148438 95.472656 15.660156 96.863281 18.949219 96.863281 C 21.109375 96.863281 22.546875 96.097656 23.222656 94.632812 C 23.53125 93.960938 23.582031 92.855469 23.582031 91.296875 L 23.582031 83.734375 C 23.582031 82.273438 23.269531 81.578125 21.851562 81.578125 L 20.796875 81.578125 L 20.796875 80.449219 L 27.398438 80.449219 L 27.398438 81.578125 L 26.507812 81.578125 C 25.140625 81.578125 24.757812 82.203125 24.757812 83.734375 L 24.757812 91.394531 C 24.757812 96.097656 23.027344 98.1875 18.109375 98.1875 C 13.765625 98.1875 11.554688 96.242188 11.554688 92.402344 L 11.554688 82.726562 C 11.554688 81.816406 11.292969 81.578125 10.285156 81.578125 L 8.890625 81.578125 L 8.890625 80.449219 L 16.667969 80.449219 "
     id="path13" />
  <path
     fill-rule="nonzero"
     fill="rgb(59.144592%, 10.105896%, 12.10022%)"
     fill-opacity="1"
     d="M 26.242188 96.769531 L 27.277344 96.722656 C 27.949219 96.699219 28.066406 96.53125 28.066406 95.835938 L 28.066406 88.539062 C 28.066406 87.746094 27.78125 87.578125 26.746094 87.578125 C 26.53125 87.578125 26.292969 87.601562 26.027344 87.601562 L 26.027344 86.664062 L 30.132812 86.378906 L 30.132812 88.679688 C 31.210938 87.097656 32.414062 86.378906 34.070312 86.378906 C 36.347656 86.378906 37.691406 87.746094 37.691406 90.21875 L 37.691406 95.835938 C 37.691406 96.53125 37.835938 96.699219 38.484375 96.722656 L 39.515625 96.769531 L 39.515625 97.777344 L 33.707031 97.777344 L 33.707031 96.769531 L 34.742188 96.722656 C 35.363281 96.699219 35.53125 96.53125 35.53125 95.835938 L 35.53125 90.121094 C 35.53125 88.679688 34.742188 87.863281 33.324219 87.863281 C 31.308594 87.863281 30.253906 89.210938 30.253906 91.875 L 30.253906 95.835938 C 30.253906 96.507812 30.347656 96.699219 31.042969 96.722656 L 32.050781 96.769531 L 32.050781 97.777344 L 26.242188 97.777344 L 26.242188 96.769531 "
     id="path14" />
  <path
     fill-rule="nonzero"
     fill="rgb(59.144592%, 10.105896%, 12.10022%)"
     fill-opacity="1"
     d="M 44.386719 81.839844 C 44.386719 82.632812 43.738281 83.257812 42.949219 83.257812 C 42.15625 83.257812 41.53125 82.585938 41.53125 81.839844 C 41.53125 81.074219 42.179688 80.421875 42.949219 80.421875 C 43.714844 80.421875 44.386719 81.046875 44.386719 81.839844 Z M 39.949219 96.769531 L 41.101562 96.722656 C 41.773438 96.699219 41.914062 96.507812 41.914062 95.835938 L 41.914062 88.539062 C 41.914062 87.746094 41.628906 87.578125 40.597656 87.578125 C 40.402344 87.578125 40.164062 87.601562 39.898438 87.601562 L 39.898438 86.664062 L 44.101562 86.378906 L 44.101562 95.835938 C 44.101562 96.53125 44.242188 96.699219 44.917969 96.722656 L 45.972656 96.769531 L 45.972656 97.777344 L 39.949219 97.777344 L 39.949219 96.769531 "
     id="path15" />
  <path
     fill-rule="nonzero"
     fill="rgb(59.144592%, 10.105896%, 12.10022%)"
     fill-opacity="1"
     d="M 51.417969 98.164062 L 47.269531 88.632812 C 46.957031 87.890625 46.621094 87.671875 45.707031 87.671875 C 45.636719 87.671875 45.585938 87.671875 45.539062 87.671875 L 45.539062 86.664062 L 50.914062 86.664062 L 50.914062 87.671875 C 49.90625 87.699219 49.476562 87.769531 49.476562 88.226562 C 49.476562 88.367188 49.570312 88.609375 49.738281 88.992188 L 52.332031 94.96875 L 54.46875 89.449219 C 54.613281 89.066406 54.707031 88.753906 54.707031 88.488281 C 54.707031 87.984375 54.253906 87.671875 53.386719 87.671875 C 53.316406 87.671875 53.21875 87.671875 53.125 87.671875 L 53.125 86.664062 L 57.78125 86.664062 L 57.78125 87.671875 C 56.699219 87.699219 56.195312 88.226562 55.738281 89.351562 L 52.164062 98.164062 L 51.417969 98.164062 "
     id="path16" />
  <path
     fill-rule="nonzero"
     fill="rgb(59.144592%, 10.105896%, 12.10022%)"
     fill-opacity="1"
     d="M 64.476562 91.367188 C 65.097656 91.367188 65.316406 91.226562 65.316406 90.601562 C 65.316406 88.417969 64.402344 87.238281 62.773438 87.238281 C 60.949219 87.238281 60.058594 88.609375 60.011719 91.367188 Z M 59.964844 92.882812 C 59.964844 95.425781 61.257812 96.890625 63.15625 96.890625 C 64.8125 96.890625 66.085938 96.027344 66.972656 94.296875 L 67.8125 94.777344 C 66.757812 97.035156 65.050781 98.164062 62.746094 98.164062 C 59.722656 98.164062 57.539062 95.835938 57.539062 92.234375 C 57.539062 88.65625 59.699219 86.28125 62.746094 86.28125 C 65.84375 86.28125 67.8125 88.417969 67.8125 91.96875 C 67.8125 92.113281 67.8125 92.257812 67.8125 92.402344 L 59.988281 92.402344 C 59.988281 92.570312 59.964844 92.714844 59.964844 92.882812 "
     id="path17" />
  <path
     fill-rule="nonzero"
     fill="rgb(59.144592%, 10.105896%, 12.10022%)"
     fill-opacity="1"
     d="M 73.210938 96.722656 L 74.675781 96.769531 L 74.675781 97.777344 L 68.363281 97.777344 L 68.363281 96.769531 L 69.492188 96.722656 C 70.164062 96.699219 70.28125 96.507812 70.28125 95.835938 L 70.28125 88.539062 C 70.28125 87.699219 69.972656 87.601562 68.84375 87.601562 C 68.628906 87.601562 68.386719 87.601562 68.121094 87.601562 L 68.121094 86.664062 L 72.300781 86.378906 L 72.300781 89.761719 C 73.042969 87.480469 74.269531 86.304688 75.804688 86.304688 C 77.101562 86.304688 77.988281 87.195312 77.988281 88.347656 C 77.988281 89.230469 77.386719 89.832031 76.59375 89.832031 C 75.707031 89.832031 75.179688 89.28125 75.179688 88.464844 C 75.179688 88.035156 75.347656 87.648438 75.660156 87.433594 C 75.613281 87.433594 75.5625 87.433594 75.515625 87.433594 C 74.003906 87.433594 72.417969 89.714844 72.417969 93.265625 L 72.417969 95.835938 C 72.417969 96.507812 72.539062 96.699219 73.210938 96.722656 "
     id="path18" />
  <path
     fill-rule="nonzero"
     fill="rgb(59.144592%, 10.105896%, 12.10022%)"
     fill-opacity="1"
     d="M 79.546875 93.386719 C 80.148438 95.855469 81.5625 97.15625 83.484375 97.15625 C 85.019531 97.15625 86.003906 96.359375 86.003906 95.164062 C 86.003906 93.890625 85.042969 93.625 83.484375 93.3125 C 80.578125 92.714844 78.828125 92.210938 78.828125 89.542969 C 78.828125 87.550781 80.171875 86.304688 82.164062 86.304688 C 83.316406 86.304688 84.203125 86.523438 85.1875 87.238281 L 85.882812 86.402344 L 86.628906 86.402344 L 86.628906 90.386719 L 85.882812 90.386719 C 85.210938 88.296875 84.011719 87.238281 82.308594 87.238281 C 80.964844 87.238281 80.125 87.984375 80.125 88.898438 C 80.125 90.3125 81.15625 90.480469 83.125 90.863281 C 85.957031 91.417969 87.417969 92.066406 87.417969 94.464844 C 87.417969 96.769531 85.90625 98.210938 83.410156 98.210938 C 82.285156 98.210938 81.277344 97.851562 80.265625 97.035156 L 79.476562 98.136719 L 78.683594 98.136719 L 78.683594 93.386719 L 79.546875 93.386719 "
     id="path19" />
  <path
     fill-rule="nonzero"
     fill="rgb(59.144592%, 10.105896%, 12.10022%)"
     fill-opacity="1"
     d="M 92.652344 81.839844 C 92.652344 82.632812 92.003906 83.257812 91.210938 83.257812 C 90.417969 83.257812 89.792969 82.585938 89.792969 81.839844 C 89.792969 81.074219 90.441406 80.421875 91.210938 80.421875 C 91.980469 80.421875 92.652344 81.046875 92.652344 81.839844 Z M 88.210938 96.769531 L 89.363281 96.722656 C 90.035156 96.699219 90.179688 96.507812 90.179688 95.835938 L 90.179688 88.539062 C 90.179688 87.746094 89.890625 87.578125 88.859375 87.578125 C 88.667969 87.578125 88.425781 87.601562 88.164062 87.601562 L 88.164062 86.664062 L 92.363281 86.378906 L 92.363281 95.835938 C 92.363281 96.53125 92.507812 96.699219 93.179688 96.722656 L 94.234375 96.769531 L 94.234375 97.777344 L 88.210938 97.777344 L 88.210938 96.769531 "
     id="path20" />
  <path
     fill-rule="nonzero"
     fill="rgb(59.144592%, 10.105896%, 12.10022%)"
     fill-opacity="1"
     d="M 93.996094 87.722656 L 93.996094 86.761719 C 95.960938 86.617188 97.089844 84.914062 97.210938 81.792969 L 98.21875 81.792969 L 98.21875 86.664062 L 101.675781 86.664062 L 101.675781 87.722656 L 98.097656 87.722656 L 98.097656 94.660156 C 98.097656 96.027344 98.363281 96.699219 99.515625 96.699219 C 100.835938 96.699219 101.433594 95.640625 101.507812 93.433594 L 102.394531 93.433594 C 102.394531 93.53125 102.394531 93.648438 102.394531 93.746094 C 102.394531 96.652344 101.074219 98.1875 98.652344 98.1875 C 96.492188 98.1875 95.914062 97.128906 95.914062 94.875 L 95.914062 87.722656 L 93.996094 87.722656 "
     id="path21" />
  <g
     clip-path="url(#clip-1)"
     id="g22">
    <path
       fill-rule="nonzero"
       fill="rgb(59.144592%, 10.105896%, 12.10022%)"
       fill-opacity="1"
       d="M 104.289062 88.707031 C 104.121094 88.347656 103.929688 88.054688 103.738281 87.9375 C 103.449219 87.746094 103.019531 87.671875 102.441406 87.671875 L 102.441406 86.664062 L 108.035156 86.664062 L 108.035156 87.671875 C 107.792969 87.671875 107.601562 87.671875 107.433594 87.671875 C 106.738281 87.671875 106.472656 87.746094 106.472656 88.175781 C 106.472656 88.320312 106.570312 88.5625 106.714844 88.921875 L 109.257812 94.777344 L 111.660156 89.019531 C 111.707031 88.875 111.777344 88.726562 111.777344 88.488281 C 111.777344 87.816406 111.300781 87.699219 110.097656 87.671875 L 110.097656 86.664062 L 114.730469 86.664062 L 114.730469 87.671875 C 113.84375 87.671875 113.316406 88.082031 112.929688 88.96875 L 108.875 98.402344 C 107.625 101.308594 106.304688 102.769531 104.21875 102.769531 C 102.800781 102.769531 102.011719 102.050781 102.011719 100.921875 C 102.011719 100.128906 102.609375 99.507812 103.449219 99.507812 C 104.21875 99.507812 104.699219 99.960938 104.699219 100.683594 C 104.699219 101.089844 104.507812 101.28125 104.507812 101.378906 C 104.507812 101.546875 104.648438 101.640625 104.9375 101.640625 C 105.707031 101.640625 106.90625 100.371094 107.9375 97.875 L 108.105469 97.488281 L 104.289062 88.707031 "
       id="path22" />
  </g>
  <path
     fill-rule="nonzero"
     fill="rgb(100%, 100%, 100%)"
     fill-opacity="1"
     d="M 82.328125 5.011719 C 71.035156 -1.882812 53.242188 -1.46875 41.824219 5.011719 L 41.824219 23.085938 C 41.6875 32.820312 47.953125 41.882812 56.433594 46.070312 C 58.300781 46.988281 60.027344 47.628906 62.078125 48.109375 C 64.125 47.628906 65.851562 46.988281 67.71875 46.070312 C 76.195312 41.886719 82.464844 32.820312 82.324219 23.085938 L 82.328125 5.011719 "
     id="path23" />
  <path
     fill-rule="nonzero"
     fill="rgb(59.144592%, 10.105896%, 12.10022%)"
     fill-opacity="1"
     d="M 75.773438 39.882812 L 67.246094 0.246094 C 66.890625 0.210938 66.53125 0.1875 66.171875 0.160156 L 73.332031 42.300781 C 74.195312 41.546875 75.011719 40.738281 75.773438 39.882812 "
     id="path24" />
  <path
     fill-rule="nonzero"
     fill="rgb(59.144592%, 10.105896%, 12.10022%)"
     fill-opacity="1"
     d="M 82.285156 24.527344 L 72.445312 1.105469 C 72.066406 1.019531 71.6875 0.945312 71.304688 0.871094 L 81.738281 28.527344 C 82.035156 27.21875 82.21875 25.882812 82.285156 24.527344 "
     id="path25" />
  <path
     fill-rule="nonzero"
     fill="rgb(59.144592%, 10.105896%, 12.10022%)"
     fill-opacity="1"
     d="M 67.71875 46.070312 C 68.363281 45.75 68.988281 45.394531 69.605469 45.023438 L 64.71875 0.0507812 C 64.335938 0.03125 63.949219 0.0351562 63.558594 0.0234375 L 66.523438 46.621094 C 66.917969 46.449219 67.316406 46.269531 67.71875 46.070312 "
     id="path26" />
  <path
     fill-rule="nonzero"
     fill="rgb(59.144592%, 10.105896%, 12.10022%)"
     fill-opacity="1"
     d="M 80.171875 33.128906 L 69.800781 0.589844 C 69.4375 0.527344 69.074219 0.484375 68.710938 0.433594 L 78.539062 36.183594 C 79.152344 35.203125 79.699219 34.179688 80.171875 33.128906 "
     id="path27" />
  <path
     fill-rule="nonzero"
     fill="rgb(59.144592%, 10.105896%, 12.10022%)"
     fill-opacity="1"
     d="M 82.328125 5.007812 C 79.835938 3.488281 77.019531 2.34375 74.035156 1.523438 L 82.324219 18.886719 L 82.328125 5.007812 "
     id="path28" />
  <path
     fill-rule="nonzero"
     fill="rgb(59.144592%, 10.105896%, 12.10022%)"
     fill-opacity="1"
     d="M 54.339844 21.527344 L 55.472656 25.003906 L 52.515625 22.851562 L 49.566406 25.003906 L 50.695312 21.527344 L 47.757812 19.386719 L 51.390625 19.386719 L 52.515625 15.929688 L 53.648438 19.386719 L 57.277344 19.386719 Z M 41.824219 5.007812 L 41.824219 23.082031 C 41.683594 32.816406 47.953125 41.882812 56.429688 46.070312 C 58.296875 46.988281 60.027344 47.625 62.074219 48.105469 L 62.074219 -0.00390625 C 54.804688 0.0546875 47.519531 1.773438 41.824219 5.007812 "
     id="path29" />
</svg>
