<svg version="1.1" id="Layer_1" xmlns="http://www.w3.org/2000/svg" xmlns:xlink="http://www.w3.org/1999/xlink" x="0px" y="0px"
	 width="100%" viewBox="0 0 690 314" enable-background="new 0 0 690 314" xml:space="preserve">
<path fill="#CCCCCC" opacity="1.000000" stroke="none" 
	d="
M240.870789,193.293488 
	C241.664719,203.020050 242.410690,212.313782 243.199295,221.603928 
	C243.824310,228.966858 241.637848,232.959457 236.011169,234.588226 
	C231.003036,236.037964 226.576736,233.416336 223.481110,227.005707 
	C211.110214,236.838150 197.319672,239.688431 182.245422,234.846542 
	C157.582504,226.924728 145.047363,199.988007 154.806824,176.207489 
	C155.792908,173.804749 156.610657,171.315918 157.791061,169.012894 
	C162.647812,159.537186 160.449966,148.419846 152.329712,141.965973 
	C144.791306,135.974533 133.552200,136.332718 125.587158,142.826599 
	C124.690880,143.557327 123.828430,144.329544 122.617851,145.367584 
	C117.166222,140.811035 111.729759,136.267181 105.843658,131.347488 
	C112.160583,123.295372 120.389778,118.354530 130.096619,116.192230 
	C146.741196,112.484497 161.351837,116.821320 172.492447,129.775070 
	C183.732712,142.844696 185.818344,158.017197 179.875122,174.193848 
	C178.466370,178.028305 176.705475,181.736267 175.042130,185.473724 
	C171.074203,194.389603 173.892654,204.920868 181.876648,210.863525 
	C190.088898,216.976089 200.465576,216.803955 208.116928,210.423813 
	C208.748917,209.896835 209.359177,209.343796 210.266891,208.552277 
	C214.225235,211.770538 218.148483,214.960251 222.889832,218.815125 
	C222.057953,209.071457 221.313141,200.262939 220.552643,191.455795 
	C218.318192,165.578796 216.096222,139.700699 213.821930,113.827217 
	C213.413300,109.178291 214.876755,105.014893 219.207321,103.648140 
	C222.288040,102.675842 226.899582,102.807968 229.324554,104.545441 
	C231.805923,106.323318 233.402344,110.580673 233.674744,113.893402 
	C234.044525,118.390480 235.117279,120.329468 239.913132,121.385246 
	C245.472153,122.609039 251.057785,124.979652 255.887268,128.030945 
	C277.199188,141.495850 278.156769,166.359329 258.043427,182.039276 
	C253.905151,185.265366 248.902176,187.372498 244.351959,190.086243 
	C243.082138,190.843582 242.006149,191.925888 240.870789,193.293488 
M236.029877,139.005493 
	C237.041992,150.491409 238.054108,161.977341 239.077347,173.589584 
	C247.401398,169.528549 251.865692,162.118988 251.082886,154.043304 
	C250.373184,146.722061 244.167191,140.100525 236.029877,139.005493 
z"/>
<path fill="#CCCCCC" opacity="1.000000" stroke="none" 
	d="
M613.262695,182.758484 
	C615.761353,184.956039 618.004578,186.904541 620.197632,188.809418 
	C613.345215,202.290619 595.053467,211.821793 579.080505,210.405838 
	C557.117310,208.458893 539.232666,192.618347 532.906494,169.509354 
	C526.392639,145.714508 533.801575,120.787682 551.838745,107.522285 
	C565.545044,97.441940 581.594604,95.955536 597.943298,96.438393 
	C599.984863,96.498688 602.256897,97.386307 603.969299,98.554504 
	C614.808716,105.949074 625.520508,113.530693 636.866394,121.464592 
	C630.316650,126.087036 624.097412,130.361496 618.034485,134.847305 
	C616.745239,135.801132 615.376099,137.423721 615.144348,138.909851 
	C612.778015,154.080597 604.541931,164.345291 589.635376,168.142746 
	C575.006348,171.869507 562.769409,167.250977 553.424194,155.283310 
	C553.138550,154.917542 552.808838,154.586197 552.460876,154.195190 
	C549.928040,163.387054 557.759399,177.765869 568.368103,183.557190 
	C580.766174,190.325317 592.561890,187.526077 604.003723,174.869049 
	C606.994141,177.406723 610.000732,179.958084 613.262695,182.758484 
M585.474548,126.166237 
	C579.355286,126.675705 573.239868,127.237480 567.115662,127.678963 
	C561.709961,128.068665 558.435303,131.053802 556.160583,136.458679 
	C561.374695,138.896973 566.322083,141.552414 571.519653,143.560562 
	C579.219543,146.535522 586.551758,145.133148 593.205322,140.394135 
	C595.766479,138.569992 598.402710,136.679016 600.412048,134.314774 
	C601.691101,132.809875 602.949219,129.866806 602.290222,128.492264 
	C601.453796,126.747665 598.731018,125.075981 596.703247,124.920807 
	C593.314331,124.661491 589.831543,125.629036 585.474548,126.166237 
z"/>
<path fill="#CCCCCC" opacity="1.000000" stroke="none" 
	d="
M385.471466,195.550964 
	C356.687897,174.482391 351.712524,133.132767 374.576172,107.143478 
	C383.051483,97.509529 394.313263,93.417580 406.475006,91.144760 
	C409.252441,90.625717 412.074097,90.338524 414.845551,89.793098 
	C423.127228,88.163307 430.188904,90.266922 437.524109,94.657623 
	C444.991241,99.127289 449.108063,104.442017 449.082275,113.076797 
	C449.076904,114.879135 449.516815,116.723869 450.005615,118.478264 
	C451.095337,122.389099 450.728455,125.449356 446.491333,127.406120 
	C445.349060,127.933647 444.382904,129.939178 444.236908,131.358917 
	C442.652405,146.764771 434.487610,157.178619 419.843658,161.533997 
	C405.374176,165.837463 392.961212,161.454437 383.226471,149.828201 
	C382.804840,149.324615 382.513489,148.711945 381.824829,147.612823 
	C380.768829,160.689667 390.428986,173.912659 400.190277,178.161407 
	C412.406952,183.478912 422.507202,180.560120 434.764008,167.690704 
	C440.275879,172.088852 445.816528,176.509918 451.303497,180.888184 
	C440.526581,203.982300 409.657593,210.879181 385.471466,195.550964 
M401.866302,137.896133 
	C414.440247,141.230118 422.898132,134.394730 430.587280,126.042000 
	C433.207428,123.195702 431.476044,118.752464 427.632812,117.993881 
	C425.881317,117.648155 423.975006,117.787315 422.179047,118.018394 
	C414.602753,118.993172 407.047302,120.129524 399.473022,121.120979 
	C393.247772,121.935860 387.694000,123.671204 385.280823,131.080902 
	C390.459808,133.242050 395.770294,135.458099 401.866302,137.896133 
z"/>
<path fill="#CCCCCC" opacity="1.000000" stroke="none" 
	d="
M344.043091,153.000641 
	C350.837891,160.600113 350.900024,170.103165 352.735535,178.968246 
	C354.623566,188.087219 356.129181,197.285889 357.766327,206.456100 
	C358.844025,212.492676 355.997772,217.023453 350.236572,218.558823 
	C345.012146,219.951141 338.484955,217.089981 337.367798,211.820816 
	C334.269165,197.206284 331.806091,182.456970 329.002899,167.278976 
	C321.174561,165.736649 313.212067,167.730499 306.075562,172.899002 
	C305.174377,173.551666 304.827179,175.723648 305.049530,177.053558 
	C306.775391,187.374771 308.714996,197.660126 310.561340,207.961426 
	C310.942322,210.087128 311.455505,212.230164 311.481842,214.370453 
	C311.551025,219.991455 307.776337,224.346954 302.383453,225.188766 
	C296.328186,226.133972 291.264740,223.242615 289.999146,217.153244 
	C287.096436,203.187012 284.612091,189.132843 282.032684,175.100616 
	C277.803375,152.092728 273.629272,129.074692 269.448517,106.057922 
	C269.181488,104.587616 268.959259,103.096420 268.883301,101.606415 
	C268.582855,95.711632 271.519684,91.164604 275.910431,90.611290 
	C285.111328,89.451797 289.394379,91.746384 290.799377,98.980896 
	C292.669098,108.608253 294.288879,118.284065 296.026123,127.937256 
	C297.055389,133.656509 298.104126,139.372269 299.201569,145.405426 
	C315.641937,138.916718 330.843201,139.328690 344.043091,153.000641 
z"/>
<path fill="#CCCCCC" opacity="1.000000" stroke="none" 
	d="
M67.278015,125.282280 
	C76.532776,114.240303 87.137352,105.630684 100.523926,100.796883 
	C107.545326,98.261505 112.156662,99.345909 114.881889,104.271622 
	C117.737221,109.432457 116.150009,116.389160 110.789536,120.229805 
	C108.134308,122.132202 105.020866,123.494972 101.960670,124.715645 
	C84.886139,131.526474 72.278046,149.196762 71.883888,167.077148 
	C71.379318,189.966202 90.168823,202.205231 110.802765,192.185455 
	C115.065865,190.115311 118.520905,186.430374 122.691032,184.103897 
	C126.023514,182.244736 129.885361,180.185699 133.496796,180.213699 
	C141.086853,180.272461 145.317245,189.545776 140.431076,195.229248 
	C128.065781,209.612274 112.878586,219.472351 93.470894,220.735199 
	C68.985779,222.328415 50.167839,204.080780 49.080242,178.253769 
	C48.243397,158.381393 55.207352,141.127228 67.278015,125.282280 
z"/>
<path fill="#CCCCCC" opacity="1.000000" stroke="none" 
	d="
M504.685059,115.448166 
	C511.688385,111.500755 518.024109,112.393387 521.952576,117.602356 
	C525.942444,122.892708 525.164612,129.408707 519.894897,134.649307 
	C514.106934,140.405289 508.388336,146.235092 502.466522,151.850311 
	C500.113007,154.082001 497.295166,155.823990 494.114838,158.221558 
	C495.386780,166.223343 496.842316,175.044754 498.177032,183.884399 
	C499.217224,190.773392 495.813263,195.924164 489.755310,196.880722 
	C483.910767,197.803589 478.866394,194.160065 477.760742,187.688904 
	C473.754852,164.243546 469.831543,140.783295 466.052185,117.300476 
	C464.867249,109.937988 468.464935,104.821938 474.741333,104.053726 
	C481.093353,103.276268 485.653259,107.172211 486.862152,114.446953 
	C487.674408,119.334877 488.446381,124.229492 489.422607,130.274551 
	C494.810883,125.023819 499.602295,120.354759 504.685059,115.448166 
z"/>
<path fill="#CCCCCC" opacity="1.000000" stroke="none" 
	d="
M144.833710,64.127136 
	C149.063782,52.605850 158.481201,46.949978 168.480942,49.580029 
	C178.893005,52.318531 185.420029,62.366425 183.836090,73.218170 
	C182.303146,83.720467 173.304642,91.434662 163.107773,90.988014 
	C150.345856,90.429001 141.822418,78.148293 144.833710,64.127136 
z"/>
</svg>